<svg width="200.42" height="351.90" xmlns="http://www.w3.org/2000/svg">
    <defs>
        <clipPath id="clipPath1">
            <path fill="#000000" stroke="none" d="M 0 0 L 20 0 L 20 14 L 0 14 Z"/>
        </clipPath>
    </defs>
    <path fill="#ffffff" stroke="none" d="M 0 0 L 174.28001 0 L 174.28001 306 L 0 306 Z"/>
    <path fill="none" stroke="#7a8aa6" stroke-linecap="round" stroke-linejoin="round" d="M 87.14001 152 C 87.14001 160.333 87.14001 172.833 87.14001 177 C 87.14001 181.167 87.14001 172.833 87.14001 177 C 87.14001 181.167 87.14001 193.667 87.14001 202"/>
    <g>
        <g clip-path="url(#clipPath1)" transform="matrix(-0.00000004 1 -1 -0.00000004 94.14 134)">
            <path fill="none" stroke="#7a8aa6" d="M 1 7 L 18 13 L 18 1 Z"/>
        </g>
    </g>
    <path fill="#f8faff" stroke="#c7d2e5" stroke-linecap="round" stroke-linejoin="round" d="M 11 8 L 163.28 8 C 164.93686 8 166.28 9.343145 166.28 11 L 166.28 149 C 166.28 150.65686 164.93686 152 163.28 152 L 11 152 C 9.343145 152 8 150.65686 8 149 L 8 11 C 8 9.343145 9.343145 8 11 8 Z"/>
    <path fill="#000000" stroke="#c7d2e5" d="M 14 59.2 L 160.28 59.2"/>
    <path fill="#000000" stroke="#c7d2e5" d="M 14 98.19999 L 160.28 98.19999"/>
    <g>
        <path fill="#1c2430" stroke="none" d="M 74.8065 44.25 L 72.76256 44.25 L 71.95006 42.13623 L 68.23033 42.13623 L 67.462265 44.25 L 65.4691 44.25 L 69.09361 34.944336 L 71.08043 34.944336 L 74.8065 44.25 Z M 71.34703 40.56836 L 70.064804 37.115234 L 68.80797 40.56836 L 71.34703 40.56836 Z M 81.922226 44.25 L 80.138535 44.25 L 80.138535 40.80957 Q 80.138535 39.717773 80.02428 39.397217 Q 79.91002 39.07666 79.65294 38.898926 Q 79.39586 38.72119 79.03404 38.72119 Q 78.57066 38.72119 78.2025 38.975098 Q 77.834335 39.229004 77.69786 39.64795 Q 77.561386 40.066895 77.561386 41.196777 L 77.561386 44.25 L 75.777695 44.25 L 75.777695 37.50879 L 77.43443 37.50879 L 77.43443 38.499023 Q 78.31676 37.356445 79.65611 37.356445 Q 80.246445 37.356445 80.735214 37.56909 Q 81.22398 37.78174 81.47472 38.111816 Q 81.72545 38.441895 81.82384 38.86084 Q 81.922226 39.279785 81.922226 40.060547 L 81.922226 44.25 Z M 83.73131 36.594727 L 83.73131 34.944336 L 85.515 34.944336 L 85.515 36.594727 L 83.73131 36.594727 Z M 83.73131 44.25 L 83.73131 37.50879 L 85.515 37.50879 L 85.515 44.25 L 83.73131 44.25 Z M 87.20982 37.50879 L 88.85386 37.50879 L 88.85386 38.4292 Q 89.73619 37.356445 90.95493 37.356445 Q 91.6024 37.356445 92.078476 37.623047 Q 92.55455 37.88965 92.85924 38.4292 Q 93.30357 37.88965 93.81773 37.623047 Q 94.331894 37.356445 94.91588 37.356445 Q 95.658554 37.356445 96.17272 37.65796 Q 96.68688 37.959473 96.94078 38.543457 Q 97.12486 38.975098 97.12486 39.93994 L 97.12486 44.25 L 95.34117 44.25 L 95.34117 40.396973 Q 95.34117 39.394043 95.15708 39.10205 Q 94.90953 38.72119 94.39537 38.72119 Q 94.02085 38.72119 93.69078 38.949707 Q 93.3607 39.178223 93.21471 39.619385 Q 93.06871 40.060547 93.06871 41.012695 L 93.06871 44.25 L 91.28502 44.25 L 91.28502 40.555664 Q 91.28502 39.571777 91.189804 39.286133 Q 91.09459 39.00049 90.89463 38.86084 Q 90.69469 38.72119 90.35191 38.72119 Q 89.939316 38.72119 89.60924 38.94336 Q 89.27916 39.165527 89.13633 39.584473 Q 88.993515 40.003418 88.993515 40.97461 L 88.993515 44.25 L 87.20982 44.25 L 87.20982 37.50879 Z M 100.235214 39.56543 L 98.61657 39.273438 Q 98.88951 38.2959 99.556015 37.82617 Q 100.22252 37.356445 101.53648 37.356445 Q 102.72984 37.356445 103.31383 37.638916 Q 103.89781 37.921387 104.13586 38.3562 Q 104.373886 38.791016 104.373886 39.952637 L 104.35484 42.034668 Q 104.35484 42.92334 104.44054 43.34546 Q 104.52623 43.76758 104.7611 44.25 L 102.99645 44.25 Q 102.92662 44.07226 102.825066 43.723145 Q 102.780624 43.564453 102.76158 43.51367 Q 102.30455 43.958004 101.78404 44.18018 Q 101.263535 44.402344 100.673195 44.402344 Q 99.63219 44.402344 99.03233 43.837402 Q 98.43248 43.272465 98.43248 42.40918 Q 98.43248 41.83789 98.70543 41.39038 Q 98.97838 40.94287 99.47033 40.704834 Q 99.962265 40.466797 100.88902 40.289063 Q 102.13951 40.0542 102.62193 39.851074 L 102.62193 39.67334 Q 102.62193 39.15918 102.368034 38.940186 Q 102.11412 38.72119 101.40952 38.72119 Q 100.93346 38.72119 100.66686 38.908447 Q 100.40025 39.095703 100.235214 39.56543 Z M 102.62193 41.012695 Q 102.27916 41.126953 101.53648 41.285645 Q 100.79381 41.444336 100.56529 41.59668 Q 100.21616 41.84424 100.21616 42.225098 Q 100.21616 42.59961 100.495476 42.87256 Q 100.774765 43.145508 101.206406 43.145508 Q 101.688835 43.145508 102.126816 42.828125 Q 102.45055 42.586914 102.55211 42.237793 Q 102.62193 42.009277 102.62193 41.368164 L 102.62193 41.012695 Z M 106.13218 44.25 L 106.13218 34.944336 L 107.91588 34.944336 L 107.91588 44.25 L 106.13218 44.25 Z"/>
    </g>
    <g>
        <path fill="#1c2430" stroke="none" d="M 41.256348 81.745605 L 41.256348 79.19385 L 38.723633 79.19385 L 38.723633 78.12744 L 41.256348 78.12744 L 41.256348 75.59473 L 42.33545 75.59473 L 42.33545 78.12744 L 44.868164 78.12744 L 44.868164 79.19385 L 42.33545 79.19385 L 42.33545 81.745605 L 41.256348 81.745605 Z M 46.17578 80.260254 L 47.3374 80.15869 Q 47.419918 80.85693 47.721436 81.30444 Q 48.02295 81.75195 48.657715 82.028076 Q 49.292484 82.3042 50.085938 82.3042 Q 50.790527 82.3042 51.33008 82.09473 Q 51.86963 81.885254 52.13306 81.52026 Q 52.396484 81.15527 52.396484 80.72363 Q 52.396484 80.285645 52.14258 79.95874 Q 51.88867 79.631836 51.304688 79.40967 Q 50.930176 79.26367 49.64795 78.95581 Q 48.365723 78.64795 47.851563 78.375 Q 47.18506 78.02588 46.858154 77.508545 Q 46.53125 76.99121 46.53125 76.3501 Q 46.53125 75.64551 46.931152 75.03296 Q 47.33106 74.42041 48.099125 74.10303 Q 48.86719 73.785645 49.806637 73.785645 Q 50.84131 73.785645 51.63159 74.1189 Q 52.42187 74.45215 52.847164 75.09961 Q 53.272465 75.74707 53.304195 76.56592 L 52.123535 76.654785 Q 52.02832 75.77246 51.479248 75.32178 Q 50.930176 74.87109 49.85742 74.87109 Q 48.740234 74.87109 48.229248 75.28052 Q 47.71826 75.68994 47.71826 76.26758 Q 47.71826 76.76904 48.08008 77.09277 Q 48.435547 77.416504 49.936768 77.7561 Q 51.43799 78.0957 51.99658 78.34961 Q 52.809082 78.72412 53.19629 79.298584 Q 53.5835 79.87305 53.5835 80.62207 Q 53.5835 81.364746 53.158207 82.02173 Q 52.732914 82.67871 51.936283 83.0437 Q 51.139652 83.40869 50.143066 83.40869 Q 48.879883 83.40869 48.026123 83.04053 Q 47.172363 82.67236 46.686768 81.93286 Q 46.201168 81.19336 46.17578 80.260254 Z M 57.614258 82.22803 L 57.779297 83.237305 Q 57.296875 83.33887 56.916016 83.33887 Q 56.293945 83.33887 55.95117 83.14209 Q 55.6084 82.94531 55.46875 82.624756 Q 55.3291 82.3042 55.3291 81.27588 L 55.3291 77.39746 L 54.49121 77.39746 L 54.49121 76.50879 L 55.3291 76.50879 L 55.3291 74.839355 L 56.465332 74.15381 L 56.465332 76.50879 L 57.614258 76.50879 L 57.614258 77.39746 L 56.465332 77.39746 L 56.465332 81.339355 Q 56.465332 81.828125 56.525635 81.96777 Q 56.585938 82.10742 56.722412 82.18994 Q 56.858887 82.27246 57.11279 82.27246 Q 57.303223 82.27246 57.614258 82.22803 Z M 58.71875 83.25 L 58.71875 76.50879 L 59.74707 76.50879 L 59.74707 77.53076 Q 60.140625 76.81348 60.473877 76.58496 Q 60.80713 76.356445 61.20703 76.356445 Q 61.784668 76.356445 62.381348 76.72461 L 61.987793 77.78467 Q 61.56885 77.53711 61.149902 77.53711 Q 60.775387 77.53711 60.47705 77.76245 Q 60.178707 77.98779 60.051758 78.387695 Q 59.86133 78.99707 59.86133 79.7207 L 59.86133 83.25 L 58.71875 83.25 Z M 63.066895 75.2583 L 63.066895 73.944336 L 64.20947 73.944336 L 64.20947 75.2583 L 63.066895 75.2583 Z M 63.066895 83.25 L 63.066895 76.50879 L 64.20947 76.50879 L 64.20947 83.25 L 63.066895 83.25 Z M 65.94873 83.25 L 65.94873 76.50879 L 66.97705 76.50879 L 66.97705 77.467285 Q 67.71973 76.356445 69.12256 76.356445 Q 69.73193 76.356445 70.24292 76.57544 Q 70.75391 76.79443 71.00781 77.1499 Q 71.26172 77.50537 71.36328 77.99414 Q 71.42676 78.31152 71.42676 79.10498 L 71.42676 83.25 L 70.28418 83.25 L 70.28418 79.149414 Q 70.28418 78.45117 70.15088 78.105225 Q 70.01758 77.75928 69.67798 77.55298 Q 69.33838 77.34668 68.88135 77.34668 Q 68.15137 77.34668 67.62134 77.81006 Q 67.09131 78.27344 67.09131 79.56836 L 67.09131 83.25 L 65.94873 83.25 Z M 72.96924 83.80859 L 74.08008 83.97363 Q 74.1499 84.48779 74.467285 84.72266 Q 74.89258 85.04004 75.62891 85.04004 Q 76.42236 85.04004 76.854004 84.72266 Q 77.285645 84.40527 77.43799 83.833984 Q 77.526855 83.48486 77.52051 82.367676 Q 76.771484 83.25 75.6543 83.25 Q 74.26416 83.25 73.50244 82.24707 Q 72.74072 81.24414 72.74072 79.84131 Q 72.74072 78.876465 73.08984 78.06079 Q 73.438965 77.24512 74.102295 76.80078 Q 74.765625 76.356445 75.660645 76.356445 Q 76.854004 76.356445 77.62842 77.32129 L 77.62842 76.50879 L 78.68213 76.50879 L 78.68213 82.33594 Q 78.68213 83.91016 78.36157 84.56714 Q 78.041016 85.22412 77.34595 85.60498 Q 76.65088 85.98584 75.635254 85.98584 Q 74.4292 85.98584 73.68652 85.443115 Q 72.94385 84.90039 72.96924 83.80859 Z M 73.91504 79.75879 Q 73.91504 81.08545 74.441895 81.694824 Q 74.96875 82.3042 75.76221 82.3042 Q 76.54932 82.3042 77.08252 81.698 Q 77.61572 81.0918 77.61572 79.796875 Q 77.61572 78.55908 77.06665 77.930664 Q 76.51758 77.302246 75.743164 77.302246 Q 74.981445 77.302246 74.44824 77.92114 Q 73.91504 78.54004 73.91504 79.75879 Z M 84.02051 83.25 L 84.02051 76.50879 L 85.04883 76.50879 L 85.04883 77.467285 Q 85.791504 76.356445 87.194336 76.356445 Q 87.80371 76.356445 88.3147 76.57544 Q 88.82568 76.79443 89.07959 77.1499 Q 89.333496 77.50537 89.43505 77.99414 Q 89.498535 78.31152 89.498535 79.10498 L 89.498535 83.25 L 88.35595 83.25 L 88.35595 79.149414 Q 88.35595 78.45117 88.22266 78.105225 Q 88.089355 77.75928 87.749756 77.55298 Q 87.41016 77.34668 86.953125 77.34668 Q 86.223145 77.34668 85.693115 77.81006 Q 85.163086 78.27344 85.163086 79.56836 L 85.163086 83.25 L 84.02051 83.25 Z M 95.649414 82.41846 Q 95.01465 82.95801 94.4275 83.180176 Q 93.84033 83.40234 93.16748 83.40234 Q 92.05664 83.40234 91.45996 82.85962 Q 90.86328 82.316895 90.86328 81.47266 Q 90.86328 80.97754 91.08862 80.568115 Q 91.31396 80.15869 91.678955 79.91113 Q 92.04395 79.663574 92.50097 79.53662 Q 92.83741 79.447754 93.51661 79.365234 Q 94.90039 79.200195 95.5542 78.97168 Q 95.56055 78.73682 95.56055 78.67334 Q 95.56055 77.9751 95.23682 77.68945 Q 94.79883 77.302246 93.93555 77.302246 Q 93.12939 77.302246 92.74536 77.58472 Q 92.36133 77.86719 92.177246 78.58447 L 91.06006 78.43213 Q 91.2124 77.71484 91.56152 77.27368 Q 91.910645 76.83252 92.5708 76.59448 Q 93.23096 76.356445 94.100586 76.356445 Q 94.96387 76.356445 95.50342 76.55957 Q 96.04297 76.762695 96.296875 77.07056 Q 96.55078 77.37842 96.652336 77.848145 Q 96.709465 78.14014 96.709465 78.901855 L 96.709465 80.42529 Q 96.709465 82.018555 96.78247 82.440674 Q 96.85547 82.86279 97.07129 83.25 L 95.87793 83.25 Q 95.700195 82.89453 95.649414 82.41846 Z M 95.5542 79.8667 Q 94.93213 80.120605 93.687996 80.29834 Q 92.9834 80.3999 92.69141 80.526855 Q 92.399414 80.65381 92.24072 80.89819 Q 92.08203 81.14258 92.08203 81.44092 Q 92.08203 81.89795 92.42798 82.20264 Q 92.773926 82.507324 93.44043 82.507324 Q 94.100586 82.507324 94.614746 82.218506 Q 95.12891 81.92969 95.37012 81.42822 Q 95.5542 81.041016 95.5542 80.285645 L 95.5542 79.8667 Z M 98.48047 83.25 L 98.48047 76.50879 L 99.50244 76.50879 L 99.50244 77.45459 Q 99.819824 76.95947 100.34667 76.65796 Q 100.873535 76.356445 101.54639 76.356445 Q 102.29541 76.356445 102.77466 76.66748 Q 103.25391 76.978516 103.45068 77.53711 Q 104.25049 76.356445 105.532715 76.356445 Q 106.53565 76.356445 107.075195 76.911865 Q 107.61475 77.467285 107.61475 78.62256 L 107.61475 83.25 L 106.47852 83.25 L 106.47852 79.00342 Q 106.47852 78.31787 106.367424 78.01636 Q 106.25634 77.71484 105.96436 77.53076 Q 105.67236 77.34668 105.27881 77.34668 Q 104.56787 77.34668 104.09814 77.81958 Q 103.62842 78.29248 103.62842 79.333496 L 103.62842 83.25 L 102.48584 83.25 L 102.48584 78.87012 Q 102.48584 78.1084 102.20654 77.72754 Q 101.92725 77.34668 101.29248 77.34668 Q 100.81006 77.34668 100.40063 77.600586 Q 99.99121 77.85449 99.80713 78.34326 Q 99.62305 78.83203 99.62305 79.75244 L 99.62305 83.25 L 98.48047 83.25 Z M 113.924324 81.0791 L 115.10498 81.2251 Q 114.82568 82.259766 114.07031 82.831055 Q 113.31494 83.40234 112.140625 83.40234 Q 110.66162 83.40234 109.795166 82.491455 Q 108.9287 81.58057 108.9287 79.93652 Q 108.9287 78.23535 109.80469 77.2959 Q 110.68067 76.356445 112.07715 76.356445 Q 113.4292 76.356445 114.28613 77.276855 Q 115.14307 78.197266 115.14307 79.8667 Q 115.14307 79.96826 115.13672 80.17139 L 110.109375 80.17139 Q 110.17286 81.28223 110.7378 81.87256 Q 111.302734 82.46289 112.14697 82.46289 Q 112.77539 82.46289 113.21973 82.13281 Q 113.66406 81.802734 113.924324 81.0791 Z M 110.17286 79.23193 L 113.93701 79.23193 Q 113.86084 78.38135 113.50537 77.956055 Q 112.95948 77.2959 112.08984 77.2959 Q 111.302734 77.2959 110.76636 77.822754 Q 110.22999 78.34961 110.17286 79.23193 Z"/>
        <path fill="#1c2430" stroke="none" d="M 41.256348 120.745605 L 41.256348 118.19385 L 38.723633 118.19385 L 38.723633 117.12744 L 41.256348 117.12744 L 41.256348 114.59473 L 42.33545 114.59473 L 42.33545 117.12744 L 44.868164 117.12744 L 44.868164 118.19385 L 42.33545 118.19385 L 42.33545 120.745605 L 41.256348 120.745605 Z M 46.44873 122.25001 L 46.44873 115.50879 L 47.470703 115.50879 L 47.470703 116.4546 Q 47.78809 115.95947 48.31494 115.65797 Q 48.841793 115.356445 49.51465 115.356445 Q 50.263668 115.356445 50.742924 115.66747 Q 51.222168 115.978516 51.418945 116.53711 Q 52.218754 115.356445 53.500973 115.356445 Q 54.503906 115.356445 55.043457 115.911865 Q 55.583008 116.467285 55.583008 117.62256 L 55.583008 122.25001 L 54.446777 122.25001 L 54.446777 118.00342 Q 54.446777 117.31787 54.335693 117.01636 Q 54.22461 116.71484 53.932617 116.53076 Q 53.64063 116.34667 53.247066 116.34667 Q 52.53613 116.34667 52.066406 116.81958 Q 51.596684 117.29248 51.596684 118.33349 L 51.596684 122.25001 L 50.4541 122.25001 L 50.4541 117.87012 Q 50.4541 117.1084 50.17481 116.72754 Q 49.895508 116.34667 49.260742 116.34667 Q 48.77832 116.34667 48.368896 116.600586 Q 47.959476 116.8545 47.77539 117.34326 Q 47.591305 117.83203 47.591305 118.75244 L 47.591305 122.25001 L 46.44873 122.25001 Z M 61.676758 121.41846 Q 61.041992 121.95801 60.454834 122.180176 Q 59.867672 122.40234 59.194824 122.40234 Q 58.083984 122.40234 57.487305 121.85961 Q 56.890625 121.316895 56.890625 120.47266 Q 56.890625 119.97755 57.115967 119.568115 Q 57.34131 119.15869 57.706295 118.91113 Q 58.07129 118.663574 58.528324 118.53662 Q 58.864746 118.44775 59.543945 118.365234 Q 60.927734 118.200195 61.581543 117.97168 Q 61.58789 117.73682 61.58789 117.67334 Q 61.58789 116.97509 61.26416 116.689445 Q 60.82617 116.302246 59.96289 116.302246 Q 59.156734 116.302246 58.772705 116.58472 Q 58.388668 116.86719 58.20459 117.58447 L 57.087402 117.43213 Q 57.239746 116.71484 57.58887 116.27368 Q 57.93799 115.83251 58.598145 115.59448 Q 59.2583 115.356445 60.12793 115.356445 Q 60.99121 115.356445 61.53076 115.55957 Q 62.070313 115.762695 62.32422 116.07056 Q 62.578125 116.37842 62.679684 116.84815 Q 62.736813 117.14013 62.736813 117.901855 L 62.736813 119.42529 Q 62.736813 121.018555 62.809814 121.440674 Q 62.882813 121.862785 63.098633 122.25001 L 61.905273 122.25001 Q 61.72754 121.89453 61.676758 121.41846 Z M 61.581543 118.8667 Q 60.959473 119.120605 59.715332 119.29835 Q 59.010746 119.3999 58.71875 119.52685 Q 58.426758 119.65381 58.268066 119.89819 Q 58.109375 120.14258 58.109375 120.44091 Q 58.109375 120.89795 58.455322 121.20264 Q 58.80127 121.507324 59.46777 121.507324 Q 60.12793 121.507324 60.64209 121.218506 Q 61.15625 120.92969 61.397465 120.42823 Q 61.581543 120.04101 61.581543 119.285645 L 61.581543 118.8667 Z M 64.51416 122.25001 L 64.51416 112.944336 L 65.65674 112.944336 L 65.65674 118.25098 L 68.36084 115.50879 L 69.83984 115.50879 L 67.262695 118.009766 L 70.1001 122.25001 L 68.69092 122.25001 L 66.46289 118.80322 L 65.65674 119.577644 L 65.65674 122.25001 L 64.51416 122.25001 Z M 75.62256 120.0791 L 76.80322 120.2251 Q 76.523926 121.259766 75.768555 121.831055 Q 75.01318 122.40234 73.83887 122.40234 Q 72.35986 122.40234 71.49341 121.491455 Q 70.62695 120.58057 70.62695 118.93652 Q 70.62695 117.23535 71.50293 116.2959 Q 72.37891 115.356445 73.77539 115.356445 Q 75.12744 115.356445 75.984375 116.276855 Q 76.84131 117.19726 76.84131 118.8667 Q 76.84131 118.96826 76.83496 119.17139 L 71.80762 119.17139 Q 71.87109 120.28223 72.436035 120.87256 Q 73.00098 121.46288 73.845215 121.46288 Q 74.47363 121.46288 74.91797 121.13281 Q 75.362305 120.802734 75.62256 120.0791 Z M 71.87109 118.23193 L 75.635254 118.23193 Q 75.55908 117.38135 75.20361 116.956055 Q 74.657715 116.2959 73.788086 116.2959 Q 73.00098 116.2959 72.4646 116.822754 Q 71.92822 117.34961 71.87109 118.23193 Z M 77.96484 119.260254 L 79.126465 119.15869 Q 79.208984 119.85693 79.5105 120.30444 Q 79.81201 120.75195 80.44678 121.028076 Q 81.08154 121.3042 81.875 121.3042 Q 82.57959 121.3042 83.11914 121.09473 Q 83.65869 120.88526 83.92212 120.52026 Q 84.18555 120.155266 84.18555 119.72363 Q 84.18555 119.285645 83.93164 118.95873 Q 83.677734 118.631836 83.09375 118.40967 Q 82.71924 118.26367 81.43701 117.95581 Q 80.154785 117.64796 79.640625 117.375 Q 78.97412 117.02587 78.64722 116.50855 Q 78.32031 115.99121 78.32031 115.3501 Q 78.32031 114.64551 78.720215 114.03296 Q 79.12012 113.42041 79.88818 113.103035 Q 80.65625 112.785645 81.5957 112.785645 Q 82.63037 112.785645 83.420654 113.1189 Q 84.21094 113.45215 84.63623 114.09961 Q 85.06152 114.74708 85.09326 115.56592 L 83.9126 115.65479 Q 83.81738 114.77246 83.26831 114.32178 Q 82.71924 113.87109 81.646484 113.87109 Q 80.5293 113.87109 80.01831 114.28052 Q 79.507324 114.68995 79.507324 115.26757 Q 79.507324 115.76905 79.86914 116.09277 Q 80.22461 116.416504 81.72583 116.7561 Q 83.22705 117.0957 83.785645 117.34961 Q 84.598145 117.72412 84.98535 118.298584 Q 85.37256 118.87305 85.37256 119.62207 Q 85.37256 120.364746 84.947266 121.02173 Q 84.52197 121.67872 83.72534 122.0437 Q 82.92871 122.40869 81.93213 122.40869 Q 80.668945 122.40869 79.815186 122.04053 Q 78.961426 121.67236 78.47583 120.93286 Q 77.990234 120.19336 77.96484 119.260254 Z M 86.48339 118.879395 Q 86.48339 117.006836 87.524414 116.10547 Q 88.39404 115.356445 89.64453 115.356445 Q 91.03467 115.356445 91.91699 116.267334 Q 92.79932 117.17822 92.79932 118.78419 Q 92.79932 120.08545 92.408936 120.83131 Q 92.018555 121.57714 91.272705 121.989746 Q 90.526855 122.40234 89.64453 122.40234 Q 88.229004 122.40234 87.3562 121.49463 Q 86.48339 120.586914 86.48339 118.879395 Z M 87.657715 118.879395 Q 87.657715 120.17432 88.22266 120.8186 Q 88.7876 121.46288 89.64453 121.46288 Q 90.49512 121.46288 91.06006 120.81543 Q 91.625 120.16797 91.625 118.84132 Q 91.625 117.59083 91.056885 116.94653 Q 90.48877 116.302246 89.64453 116.302246 Q 88.7876 116.302246 88.22266 116.94336 Q 87.657715 117.58447 87.657715 118.879395 Z M 98.55664 122.25001 L 98.55664 121.259766 Q 97.76953 122.40234 96.41749 122.40234 Q 95.8208 122.40234 95.30347 122.17383 Q 94.78613 121.94531 94.5354 121.599365 Q 94.28467 121.25342 94.183105 120.75195 Q 94.11328 120.41553 94.11328 119.68555 L 94.11328 115.50879 L 95.25586 115.50879 L 95.25586 119.24755 Q 95.25586 120.14258 95.32568 120.45361 Q 95.43359 120.9043 95.782715 121.16138 Q 96.13184 121.41846 96.646 121.41846 Q 97.160164 121.41846 97.61085 121.15503 Q 98.06152 120.891594 98.24878 120.43774 Q 98.436035 119.98388 98.436035 119.120605 L 98.436035 115.50879 L 99.57861 115.50879 L 99.57861 122.25001 L 98.55664 122.25001 Z M 101.368645 122.25001 L 101.368645 115.50879 L 102.39697 115.50879 L 102.39697 116.467285 Q 103.13965 115.356445 104.54249 115.356445 Q 105.151855 115.356445 105.66284 115.57544 Q 106.17383 115.79443 106.42773 116.1499 Q 106.68164 116.50537 106.7832 116.99414 Q 106.84668 117.311516 106.84668 118.10497 L 106.84668 122.25001 L 105.7041 122.25001 L 105.7041 118.149414 Q 105.7041 117.45117 105.57081 117.105225 Q 105.4375 116.75928 105.0979 116.55298 Q 104.7583 116.34667 104.30127 116.34667 Q 103.57129 116.34667 103.04126 116.81006 Q 102.51123 117.27344 102.51123 118.56836 L 102.51123 122.25001 L 101.368645 122.25001 Z M 112.97217 122.25001 L 112.97217 121.39942 Q 112.33106 122.40234 111.08691 122.40234 Q 110.28076 122.40234 109.604744 121.95801 Q 108.9287 121.51368 108.55737 120.71705 Q 108.18603 119.92042 108.18603 118.88574 Q 108.18603 117.87647 108.52247 117.05444 Q 108.85889 116.232414 109.53174 115.79443 Q 110.20459 115.356445 111.03613 115.356445 Q 111.645515 115.356445 112.12158 115.613525 Q 112.59766 115.870605 112.896 116.28321 L 112.896 112.944336 L 114.032234 112.944336 L 114.032234 122.25001 L 112.97217 122.25001 Z M 109.36035 118.88574 Q 109.36035 120.180664 109.90625 120.82178 Q 110.452156 121.46288 111.19483 121.46288 Q 111.94384 121.46288 112.46753 120.85034 Q 112.99121 120.23779 112.99121 118.98096 Q 112.99121 117.59716 112.45801 116.94971 Q 111.924805 116.302246 111.144035 116.302246 Q 110.382324 116.302246 109.87134 116.92432 Q 109.36035 117.54639 109.36035 118.88574 Z M 118.012215 124.98583 Q 117.06641 123.79247 116.4126 122.19288 Q 115.75879 120.59326 115.75879 118.879395 Q 115.75879 117.368645 116.24756 115.98486 Q 116.818855 114.37891 118.012215 112.785645 L 118.831055 112.785645 Q 118.06299 114.10596 117.81543 114.6709 Q 117.42822 115.54688 117.206055 116.49902 Q 116.93311 117.686035 116.93311 118.88574 Q 116.93311 121.938965 118.831055 124.98583 L 118.012215 124.98583 Z M 120.90674 124.98583 L 120.08789 124.98583 Q 121.98584 121.938965 121.98584 118.88574 Q 121.98584 117.69238 121.71288 116.51806 Q 121.49707 115.56592 121.10986 114.68995 Q 120.8623 114.11865 120.08789 112.785645 L 120.90674 112.785645 Q 122.1001 114.37891 122.671394 115.98486 Q 123.16016 117.368645 123.16016 118.879395 Q 123.16016 120.59326 122.50318 122.19288 Q 121.84619 123.79247 120.90674 124.98583 Z"/>
    </g>
    <path fill="#f8faff" stroke="#c7d2e5" stroke-linecap="round" stroke-linejoin="round" d="M 36.06 202 L 138.21 202 C 139.86687 202 141.21 203.34314 141.21 205 L 141.21 295 C 141.21 296.65686 139.86687 298 138.21 298 L 36.06 298 C 34.40315 298 33.06 296.65686 33.06 295 L 33.06 205 C 33.06 203.34314 34.40315 202 36.06 202 Z"/>
    <path fill="#000000" stroke="#c7d2e5" d="M 39.06 248.70001 L 135.22 248.70001"/>
    <g>
        <path fill="#1c2430" stroke="none" d="M 75.44444 224.44434 L 78.878525 224.44434 Q 80.040146 224.44434 80.64952 224.62209 Q 81.46837 224.86327 82.05235 225.479 Q 82.63634 226.09474 82.941025 226.98657 Q 83.24571 227.87842 83.24571 229.18602 Q 83.24571 230.33496 82.96007 231.1665 Q 82.61095 232.18213 81.963486 232.81053 Q 81.47472 233.28662 80.64317 233.55322 Q 80.0211 233.75 78.98009 233.75 L 75.44444 233.75 L 75.44444 224.44434 Z M 77.32335 226.01855 L 77.32335 232.18213 L 78.72618 232.18213 Q 79.51329 232.18213 79.86241 232.09326 Q 80.31944 231.979 80.62096 231.70605 Q 80.92247 231.43312 81.1129 230.80786 Q 81.30333 230.18263 81.30333 229.10352 Q 81.30333 228.02443 81.1129 227.44678 Q 80.92247 226.86914 80.5797 226.54543 Q 80.23692 226.22166 79.71007 226.1074 Q 79.31651 226.01855 78.16759 226.01855 L 77.32335 226.01855 Z M 84.41368 230.28418 Q 84.41368 229.39552 84.85167 228.56396 Q 85.28966 227.73242 86.092636 227.29443 Q 86.895615 226.85645 87.88584 226.85645 Q 89.41564 226.85645 90.39317 227.84985 Q 91.37071 228.84325 91.37071 230.36035 Q 91.37071 231.89015 90.383644 232.89624 Q 89.39659 233.90234 87.898544 233.90234 Q 86.971794 233.90234 86.13072 233.48341 Q 85.28966 233.06445 84.85167 232.25513 Q 84.41368 231.44579 84.41368 230.28418 Z M 86.241806 230.3794 Q 86.241806 231.38232 86.71788 231.91553 Q 87.19396 232.44873 87.8922 232.44873 Q 88.59044 232.44873 89.06334 231.91553 Q 89.53623 231.38232 89.53623 230.3667 Q 89.53623 229.37646 89.06334 228.84325 Q 88.59044 228.31006 87.8922 228.31006 Q 87.19396 228.31006 86.71788 228.84325 Q 86.241806 229.37646 86.241806 230.3794 Z M 92.60215 234.19434 L 94.63976 234.4419 Q 94.69054 234.79736 94.87461 234.93066 Q 95.128525 235.1211 95.674416 235.1211 Q 96.372665 235.1211 96.72179 234.91162 Q 96.95665 234.77197 97.077255 234.46094 Q 97.159775 234.23877 97.159775 233.64209 L 97.159775 232.6582 Q 96.35997 233.75 95.14122 233.75 Q 93.78282 233.75 92.989365 232.60107 Q 92.3673 231.69336 92.3673 230.34131 Q 92.3673 228.64648 93.18297 227.75146 Q 93.99864 226.85645 95.21105 226.85645 Q 96.46154 226.85645 97.27403 227.95459 L 97.27403 227.0088 L 98.94347 227.0088 L 98.94347 233.0581 Q 98.94347 234.25146 98.74669 234.84181 Q 98.54991 235.43211 98.19444 235.76854 Q 97.838974 236.10497 97.24547 236.29541 Q 96.65196 236.48584 95.74425 236.48584 Q 94.03038 236.48584 93.313095 235.89868 Q 92.59582 235.31151 92.59582 234.41014 Q 92.59582 234.32129 92.60215 234.19434 Z M 94.19541 230.23975 Q 94.19541 231.3125 94.61119 231.81079 Q 95.02696 232.30908 95.63634 232.30908 Q 96.29015 232.30908 96.74083 231.79808 Q 97.19151 231.28711 97.19151 230.28418 Q 97.19151 229.23682 96.75987 228.72899 Q 96.32823 228.22119 95.66808 228.22119 Q 95.02696 228.22119 94.61119 228.71947 Q 94.19541 229.21777 94.19541 230.23975 Z"/>
    </g>
    <g>
        <path fill="#1c2430" stroke="none" d="M 66.316345 271.2456 L 66.316345 268.69385 L 63.783634 268.69385 L 63.783634 267.62744 L 66.316345 267.62744 L 66.316345 265.09473 L 67.39545 265.09473 L 67.39545 267.62744 L 69.92816 267.62744 L 69.92816 268.69385 L 67.39545 268.69385 L 67.39545 271.2456 L 66.316345 271.2456 Z M 71.78168 272.75 L 71.78168 266.89746 L 70.7724 266.89746 L 70.7724 266.0088 L 71.78168 266.0088 L 71.78168 265.2915 Q 71.78168 264.6123 71.90228 264.28223 Q 72.06732 263.8379 72.48309 263.56177 Q 72.898865 263.28564 73.64789 263.28564 Q 74.13031 263.28564 74.714294 263.3999 L 74.54291 264.39648 Q 74.18744 264.333 73.870056 264.333 Q 73.34955 264.333 73.13373 264.55518 Q 72.91791 264.77734 72.91791 265.38672 L 72.91791 266.0088 L 74.23187 266.0088 L 74.23187 266.89746 L 72.91791 266.89746 L 72.91791 272.75 L 71.78168 272.75 Z M 79.73529 270.5791 L 80.915955 270.7251 Q 80.63666 271.75977 79.88129 272.33105 Q 79.125916 272.90234 77.9516 272.90234 Q 76.472595 272.90234 75.60614 271.99146 Q 74.739685 271.08057 74.739685 269.43652 Q 74.739685 267.73535 75.61566 266.7959 Q 76.49164 265.85645 77.88812 265.85645 Q 79.24017 265.85645 80.09711 266.77686 Q 80.95404 267.69727 80.95404 269.3667 Q 80.95404 269.46826 80.94769 269.6714 L 75.92035 269.6714 Q 75.983826 270.78223 76.54877 271.37256 Q 77.11371 271.9629 77.95795 271.9629 Q 78.586365 271.9629 79.0307 271.6328 Q 79.47504 271.30273 79.73529 270.5791 Z M 75.983826 268.73193 L 79.747986 268.73193 Q 79.671814 267.88135 79.316345 267.45605 Q 78.77045 266.7959 77.90082 266.7959 Q 77.11371 266.7959 76.57733 267.32275 Q 76.040955 267.8496 75.983826 268.73193 Z M 84.84515 271.72803 L 85.01019 272.7373 Q 84.52777 272.83887 84.14691 272.83887 Q 83.52484 272.83887 83.18207 272.6421 Q 82.839294 272.4453 82.699646 272.12476 Q 82.56 271.8042 82.56 270.77588 L 82.56 266.89746 L 81.72211 266.89746 L 81.72211 266.0088 L 82.56 266.0088 L 82.56 264.33936 L 83.69623 263.6538 L 83.69623 266.0088 L 84.84515 266.0088 L 84.84515 266.89746 L 83.69623 266.89746 L 83.69623 270.83936 Q 83.69623 271.32813 83.75653 271.46777 Q 83.81683 271.60742 83.95331 271.68994 Q 84.08978 271.77246 84.34369 271.77246 Q 84.53412 271.77246 84.84515 271.72803 Z M 90.36126 270.28076 L 91.4848 270.42676 Q 91.30072 271.58838 90.542175 272.24536 Q 89.78363 272.90234 88.67914 272.90234 Q 87.29534 272.90234 86.454285 271.9978 Q 85.61322 271.09326 85.61322 269.4048 Q 85.61322 268.313 85.97504 267.49414 Q 86.33685 266.6753 87.076355 266.26587 Q 87.81586 265.85645 88.685486 265.85645 Q 89.78363 265.85645 90.48187 266.41187 Q 91.180115 266.9673 91.3769 267.98926 L 90.26605 268.16064 Q 90.10736 267.48145 89.704285 267.13867 Q 89.30121 266.7959 88.72992 266.7959 Q 87.86663 266.7959 87.32709 267.4148 Q 86.78753 268.0337 86.78753 269.37305 Q 86.78753 270.73145 87.308044 271.34717 Q 87.82855 271.9629 88.66644 271.9629 Q 89.33929 271.9629 89.789986 271.5503 Q 90.24067 271.1377 90.36126 270.28076 Z M 92.46235 272.75 L 92.46235 263.44434 L 93.60491 263.44434 L 93.60491 266.7832 Q 94.404724 265.85645 95.623474 265.85645 Q 96.3725 265.85645 96.92474 266.1516 Q 97.47699 266.44678 97.71503 266.9673 Q 97.953064 267.4878 97.953064 268.47803 L 97.953064 272.75 L 96.810486 272.75 L 96.810486 268.47803 Q 96.810486 267.6211 96.439156 267.2307 Q 96.06781 266.84033 95.38861 266.84033 Q 94.8808 266.84033 94.43329 267.10376 Q 93.98578 267.3672 93.79535 267.81787 Q 93.60491 268.26855 93.60491 269.062 L 93.60491 272.75 L 92.46235 272.75 Z M 101.875916 275.48584 Q 100.93012 274.29248 100.276306 272.69287 Q 99.622505 271.09326 99.622505 269.3794 Q 99.622505 267.86865 100.11127 266.48486 Q 100.682556 264.8789 101.875916 263.28564 L 102.694756 263.28564 Q 101.9267 264.60596 101.67914 265.1709 Q 101.29193 266.04688 101.06976 266.99902 Q 100.796814 268.18604 100.796814 269.38574 Q 100.796814 272.43896 102.694756 275.48584 L 101.875916 275.48584 Z M 104.77045 275.48584 L 103.9516 275.48584 Q 105.84955 272.43896 105.84955 269.38574 Q 105.84955 268.19238 105.5766 267.01807 Q 105.36079 266.06592 104.97357 265.18994 Q 104.72601 264.61865 103.9516 263.28564 L 104.77045 263.28564 Q 105.963806 264.8789 106.535095 266.48486 Q 107.023865 267.86865 107.023865 269.3794 Q 107.023865 271.09326 106.36688 272.69287 Q 105.70989 274.29248 104.77045 275.48584 Z"/>
    </g>
</svg>
