<svg width="736.17" height="406.12" xmlns="http://www.w3.org/2000/svg">
    <defs>
        <clipPath id="clipPath1">
            <path fill="#000000" stroke="none" d="M -1 0 L 11 0 L 11 10 L -1 10 Z"/>
        </clipPath>
        <clipPath id="clipPath2">
            <path fill="#000000" stroke="none" d="M -1 0 L 11 0 L 11 10 L -1 10 Z"/>
        </clipPath>
        <clipPath id="clipPath3">
            <path fill="#000000" stroke="none" d="M -1 0 L 11 0 L 11 10 L -1 10 Z"/>
        </clipPath>
        <clipPath id="clipPath4">
            <path fill="#000000" stroke="none" d="M -1 0 L 11 0 L 11 10 L -1 10 Z"/>
        </clipPath>
    </defs>
    <path fill="#ffffff" stroke="none" d="M 0 0 L 640.15 0 L 640.15 353.14996 L 0 353.14996 Z"/>
    <path fill="#000000" stroke="#7a8aa6" stroke-width="0.5" d="M 75 65 L 75 228.14998"/>
    <path fill="#000000" stroke="#7a8aa6" stroke-width="0.5" d="M 275.05 65 L 275.05 228.14998"/>
    <path fill="#000000" stroke="#7a8aa6" stroke-width="0.5" d="M 475.1 65 L 475.1 228.14998"/>
    <path fill="none" stroke="#7a8aa6" stroke-width="2" d="M 75 102.700005 L 275.05 102.700005"/>
    <g>
        <g clip-path="url(#clipPath1)" transform="matrix(1 0 0 1 267.15 97.7)">
            <path fill="#7a8aa6" stroke="#7a8aa6" d="M -1 0 L 10 5 L 0 10 Z"/>
        </g>
    </g>
    <g>
        <path fill="#1c2430" stroke="none" d="M 134.4077 74.36025 L 135.56932 74.25869 Q 135.65184 74.95693 135.95335 75.40444 Q 136.25487 75.85195 136.88963 76.128075 Q 137.5244 76.4042 138.31786 76.4042 Q 139.02245 76.4042 139.562 76.194725 Q 140.10155 75.98525 140.36497 75.62026 Q 140.6284 75.25527 140.6284 74.82363 Q 140.6284 74.38564 140.3745 74.05874 Q 140.12059 73.731834 139.5366 73.50967 Q 139.1621 73.36367 137.87987 73.05581 Q 136.59764 72.74795 136.08348 72.475 Q 135.41698 72.12588 135.09007 71.60854 Q 134.76317 71.09121 134.76317 70.450096 Q 134.76317 69.74551 135.16307 69.13296 Q 135.56297 68.52041 136.33104 68.203026 Q 137.0991 67.88564 138.03856 67.88564 Q 139.07323 67.88564 139.86351 68.218895 Q 140.6538 68.55215 141.07909 69.19961 Q 141.50438 69.84707 141.53612 70.66592 L 140.35545 70.75478 Q 140.26024 69.87246 139.71117 69.421776 Q 139.1621 68.97109 138.08934 68.97109 Q 136.97215 68.97109 136.46117 69.380516 Q 135.95018 69.78994 135.95018 70.36758 Q 135.95018 70.86904 136.312 71.19277 Q 136.66747 71.5165 138.16869 71.8561 Q 139.6699 72.1957 140.2285 72.44961 Q 141.041 72.82412 141.4282 73.39858 Q 141.81541 73.973045 141.81541 74.72207 Q 141.81541 75.464745 141.39012 76.12173 Q 140.96483 76.77871 140.1682 77.1437 Q 139.37157 77.50869 138.37498 77.50869 Q 137.1118 77.50869 136.25804 77.140526 Q 135.40428 76.77236 134.91869 76.03286 Q 134.43309 75.29336 134.4077 74.36025 Z M 147.9663 75.1791 L 149.14696 75.325096 Q 148.86766 76.359764 148.11229 76.93105 Q 147.35692 77.50234 146.1826 77.50234 Q 144.7036 77.50234 143.83714 76.59145 Q 142.97069 75.680565 142.97069 74.03652 Q 142.97069 72.33535 143.84666 71.3959 Q 144.72264 70.45644 146.11913 70.45644 Q 147.47118 70.45644 148.32811 71.376854 Q 149.18504 72.297264 149.18504 73.9667 Q 149.18504 74.06826 149.1787 74.271385 L 144.15135 74.271385 Q 144.21483 75.382225 144.77977 75.97256 Q 145.34471 76.56289 146.18895 76.56289 Q 146.81737 76.56289 147.2617 76.23281 Q 147.70604 75.90273 147.9663 75.1791 Z M 144.21483 73.33193 L 147.97899 73.33193 Q 147.90282 72.481346 147.54735 72.05605 Q 147.00145 71.3959 146.13182 71.3959 Q 145.34471 71.3959 144.80833 71.92275 Q 144.27196 72.44961 144.21483 73.33193 Z M 150.58153 77.35 L 150.58153 70.60879 L 151.60985 70.60879 L 151.60985 71.56728 Q 152.35252 70.45644 153.75536 70.45644 Q 154.36473 70.45644 154.87572 70.67544 Q 155.3867 70.89443 155.64061 71.2499 Q 155.89452 71.60537 155.99608 72.09414 Q 156.05956 72.41152 156.05956 73.20498 L 156.05956 77.35 L 154.91698 77.35 L 154.91698 73.24941 Q 154.91698 72.55117 154.78368 72.20522 Q 154.65038 71.859276 154.31078 71.65298 Q 153.97118 71.44668 153.51414 71.44668 Q 152.78416 71.44668 152.25414 71.91006 Q 151.7241 72.373436 151.7241 73.66836 L 151.7241 77.35 L 150.58153 77.35 Z M 162.18504 77.35 L 162.18504 76.49941 Q 161.54393 77.50234 160.29979 77.50234 Q 159.49364 77.50234 158.81761 77.05801 Q 158.14159 76.61367 157.77025 75.81704 Q 157.39891 75.02041 157.39891 73.98574 Q 157.39891 72.97646 157.73534 72.15444 Q 158.07176 71.33242 158.74461 70.89443 Q 159.41747 70.45644 160.24901 70.45644 Q 160.85838 70.45644 161.33446 70.713524 Q 161.81053 70.970604 162.10887 71.3832 L 162.10887 68.044334 L 163.2451 68.044334 L 163.2451 77.35 L 162.18504 77.35 Z M 158.57323 73.98574 Q 158.57323 75.28066 159.11913 75.921776 Q 159.66502 76.56289 160.4077 76.56289 Q 161.15672 76.56289 161.6804 75.95034 Q 162.20409 75.33779 162.20409 74.080956 Q 162.20409 72.69717 161.67088 72.049706 Q 161.13768 71.402245 160.35692 71.402245 Q 159.5952 71.402245 159.08421 72.024315 Q 158.57323 72.646385 158.57323 73.98574 Z M 168.81834 77.35 L 168.81834 68.044334 L 172.94432 68.044334 Q 174.18846 68.044334 174.83592 68.29507 Q 175.4834 68.5458 175.87059 69.180565 Q 176.2578 69.81533 176.2578 70.5834 Q 176.2578 71.57363 175.61667 72.25283 Q 174.97557 72.93203 173.63622 73.11611 Q 174.125 73.350975 174.37889 73.57949 Q 174.91846 74.07461 175.40086 74.81728 L 177.01952 77.35 L 175.47069 77.35 L 174.23926 75.41396 Q 173.69969 74.57607 173.35057 74.13174 Q 173.00143 73.6874 172.72533 73.50967 Q 172.4492 73.33193 172.16356 73.26211 Q 171.9541 73.217674 171.47801 73.217674 L 170.04979 73.217674 L 170.04979 77.35 L 168.81834 77.35 Z M 170.04979 72.15127 L 172.69676 72.15127 Q 173.541 72.15127 174.01706 71.97671 Q 174.49315 71.80215 174.7407 71.41811 Q 174.98827 71.03408 174.98827 70.5834 Q 174.98827 69.92324 174.50902 69.49795 Q 174.02977 69.072655 172.99509 69.072655 L 170.04979 69.072655 L 170.04979 72.15127 Z M 182.65622 75.1791 L 183.8369 75.325096 Q 183.55762 76.359764 182.80223 76.93105 Q 182.04686 77.50234 180.87254 77.50234 Q 179.39354 77.50234 178.52708 76.59145 Q 177.66061 75.680565 177.66061 74.03652 Q 177.66061 72.33535 178.5366 71.3959 Q 179.41258 70.45644 180.80907 70.45644 Q 182.16112 70.45644 183.01805 71.376854 Q 183.87498 72.297264 183.87498 73.9667 Q 183.87498 74.06826 183.86864 74.271385 L 178.8413 74.271385 Q 178.90475 75.382225 179.4697 75.97256 Q 180.03467 76.56289 180.87889 76.56289 Q 181.50732 76.56289 181.95164 76.23281 Q 182.39598 75.90273 182.65622 75.1791 Z M 178.90475 73.33193 L 182.66893 73.33193 Q 182.59276 72.481346 182.23729 72.05605 Q 181.69139 71.3959 180.82178 71.3959 Q 180.03467 71.3959 179.49828 71.92275 Q 178.9619 72.44961 178.90475 73.33193 Z M 189.56883 79.933495 L 189.56883 76.63271 Q 189.30223 77.007225 188.82298 77.25478 Q 188.34372 77.50234 187.80418 77.50234 Q 186.60448 77.50234 185.73802 76.543846 Q 184.87157 75.58535 184.87157 73.91592 Q 184.87157 72.90029 185.22386 72.09414 Q 185.57616 71.28799 186.24583 70.872215 Q 186.91551 70.45644 187.71532 70.45644 Q 188.9658 70.45644 189.68309 71.510155 L 189.68309 70.60879 L 190.71143 70.60879 L 190.71143 79.933495 L 189.56883 79.933495 Z M 186.04588 73.96035 Q 186.04588 75.26162 186.59178 75.912254 Q 187.13768 76.56289 187.8994 76.56289 Q 188.62938 76.56289 189.15623 75.94399 Q 189.68309 75.325096 189.68309 74.06191 Q 189.68309 72.71621 189.12769 72.03701 Q 188.57224 71.35781 187.82323 71.35781 Q 187.08057 71.35781 186.56322 71.9894 Q 186.04588 72.620995 186.04588 73.96035 Z M 196.91942 77.35 L 196.91942 76.359764 Q 196.13231 77.50234 194.78026 77.50234 Q 194.18358 77.50234 193.66626 77.27383 Q 193.14891 77.04531 192.89818 76.69936 Q 192.64746 76.35342 192.54587 75.85195 Q 192.47606 75.515526 192.47606 74.785545 L 192.47606 70.60879 L 193.61864 70.60879 L 193.61864 74.34756 Q 193.61864 75.24258 193.68845 75.55361 Q 193.79636 76.004295 194.14548 76.261375 Q 194.49461 76.518456 195.00877 76.518456 Q 195.52293 76.518456 195.97362 76.25503 Q 196.4243 75.9916 196.61156 75.53774 Q 196.79881 75.083885 196.79881 74.220604 L 196.79881 70.60879 L 197.94139 70.60879 L 197.94139 77.35 L 196.91942 77.35 Z M 204.34618 75.1791 L 205.52684 75.325096 Q 205.24754 76.359764 204.49217 76.93105 Q 203.7368 77.50234 202.56248 77.50234 Q 201.08348 77.50234 200.21703 76.59145 Q 199.35059 75.680565 199.35059 74.03652 Q 199.35059 72.33535 200.22655 71.3959 Q 201.10252 70.45644 202.49901 70.45644 Q 203.85106 70.45644 204.70798 71.376854 Q 205.56493 72.297264 205.56493 73.9667 Q 205.56493 74.06826 205.55858 74.271385 L 200.53123 74.271385 Q 200.59471 75.382225 201.15965 75.97256 Q 201.7246 76.56289 202.56883 76.56289 Q 203.19725 76.56289 203.64159 76.23281 Q 204.08592 75.90273 204.34618 75.1791 Z M 200.59471 73.33193 L 204.35889 73.33193 Q 204.2827 72.481346 203.92723 72.05605 Q 203.38133 71.3959 202.5117 71.3959 Q 201.7246 71.3959 201.1882 71.92275 Q 200.65184 72.44961 200.59471 73.33193 Z M 206.50438 75.33779 L 207.63426 75.16006 Q 207.72948 75.83926 208.16429 76.20107 Q 208.5991 76.56289 209.37987 76.56289 Q 210.16696 76.56289 210.54784 76.24233 Q 210.9287 75.921776 210.9287 75.490135 Q 210.9287 75.10293 210.59227 74.88076 Q 210.3574 74.72842 209.4243 74.49355 Q 208.16747 74.17617 207.68187 73.94448 Q 207.19629 73.71279 206.94554 73.30337 Q 206.69481 72.89394 206.69481 72.39883 Q 206.69481 71.94814 206.90111 71.56411 Q 207.1074 71.18008 207.46288 70.92617 Q 207.72948 70.72939 208.18968 70.59292 Q 208.64989 70.45644 209.17674 70.45644 Q 209.9702 70.45644 210.57005 70.68496 Q 211.16992 70.913475 211.45555 71.303856 Q 211.74121 71.69424 211.84912 72.348045 L 210.7319 72.50039 Q 210.65575 71.97988 210.29076 71.68789 Q 209.92578 71.3959 209.25925 71.3959 Q 208.47215 71.3959 208.13573 71.65615 Q 207.7993 71.916405 207.7993 72.265526 Q 207.7993 72.48769 207.93895 72.66543 Q 208.0786 72.84951 208.37694 72.970116 Q 208.54832 73.03359 209.38622 73.26211 Q 210.59863 73.58584 211.07785 73.79214 Q 211.55711 73.998436 211.83006 74.39199 Q 212.103 74.785545 212.103 75.36953 Q 212.103 75.94082 211.76976 76.44546 Q 211.43651 76.950096 210.80809 77.22622 Q 210.17967 77.50234 209.38622 77.50234 Q 208.07225 77.50234 207.38353 76.95644 Q 206.69481 76.410545 206.50438 75.33779 Z M 215.95602 76.328026 L 216.12108 77.3373 Q 215.63866 77.438866 215.2578 77.438866 Q 214.63573 77.438866 214.29295 77.24209 Q 213.95018 77.04531 213.81053 76.724754 Q 213.6709 76.4042 213.6709 75.37588 L 213.6709 71.49746 L 212.833 71.49746 L 212.833 70.60879 L 213.6709 70.60879 L 213.6709 68.939354 L 214.80713 68.25381 L 214.80713 70.60879 L 215.95602 70.60879 L 215.95602 71.49746 L 214.80713 71.49746 L 214.80713 75.439354 Q 214.80713 75.92812 214.86742 76.06777 Q 214.92773 76.20742 215.0642 76.28994 Q 215.20067 76.37246 215.45457 76.37246 Q 215.645 76.37246 215.95602 76.328026 Z"/>
    </g>
    <path fill="none" stroke="#7a8aa6" stroke-width="2" d="M 275.05 139.1 L 475.1 139.1"/>
    <g>
        <g clip-path="url(#clipPath2)" transform="matrix(1 0 0 1 467.2 134.1)">
            <path fill="#7a8aa6" stroke="#7a8aa6" d="M -1 0 L 10 5 L 0 10 Z"/>
        </g>
    </g>
    <g>
        <path fill="#1c2430" stroke="none" d="M 349.89883 112.75342 Q 350.75577 113.34376 351.4794 113.6167 L 351.11758 114.47363 Q 350.11465 114.11182 349.11804 113.331055 Q 348.0834 113.90869 346.8329 113.90869 Q 345.56973 113.90869 344.54144 113.29932 Q 343.5131 112.68994 342.95767 111.58546 Q 342.40225 110.48096 342.40225 109.09717 Q 342.40225 107.719734 342.96085 106.589836 Q 343.51944 105.45996 344.55093 104.86963 Q 345.58243 104.2793 346.85828 104.2793 Q 348.14688 104.2793 349.18155 104.891846 Q 350.21625 105.5044 350.75894 106.60571 Q 351.30167 107.70703 351.30167 109.09081 Q 351.30167 110.239746 350.95255 111.15698 Q 350.60342 112.07422 349.89883 112.75342 Z M 347.1884 111.1792 Q 348.2548 111.47753 348.9467 112.06787 Q 350.0321 111.07763 350.0321 109.09081 Q 350.0321 107.96094 349.64813 107.1167 Q 349.26407 106.27246 348.5246 105.80591 Q 347.78506 105.33935 346.86465 105.33935 Q 345.48718 105.33935 344.57947 106.28198 Q 343.67175 107.22461 343.67175 109.09717 Q 343.67175 110.9126 344.56998 111.88379 Q 345.46814 112.85498 346.86465 112.85498 Q 347.52478 112.85498 348.1088 112.60743 Q 347.53113 112.23291 346.89005 112.07422 L 347.1884 111.1792 Z M 357.23038 113.74999 L 357.23038 112.759766 Q 356.44327 113.90234 355.09122 113.90234 Q 354.49454 113.90234 353.97723 113.67383 Q 353.45987 113.44531 353.20914 113.099365 Q 352.95844 112.75342 352.85684 112.25195 Q 352.78702 111.91553 352.78702 111.185555 L 352.78702 107.00879 L 353.9296 107.00879 L 353.9296 110.74756 Q 353.9296 111.642586 353.99942 111.95361 Q 354.1073 112.4043 354.45645 112.661385 Q 354.80554 112.91846 355.31973 112.91846 Q 355.8339 112.91846 356.28458 112.65503 Q 356.73526 112.3916 356.92255 111.937744 Q 357.10977 111.48389 357.10977 110.62061 L 357.10977 107.00879 L 358.25235 107.00879 L 358.25235 113.74999 L 357.23038 113.74999 Z M 364.65714 111.5791 L 365.8378 111.7251 Q 365.5585 112.759766 364.8031 113.331055 Q 364.04776 113.90234 362.87344 113.90234 Q 361.3944 113.90234 360.52798 112.991455 Q 359.66153 112.08057 359.66153 110.43652 Q 359.66153 108.73535 360.5375 107.7959 Q 361.41348 106.856445 362.80997 106.856445 Q 364.16202 106.856445 365.01892 107.77686 Q 365.8759 108.697266 365.8759 110.3667 Q 365.8759 110.46826 365.86954 110.671394 L 360.8422 110.671394 Q 360.9057 111.78223 361.4706 112.37256 Q 362.03558 112.96289 362.8798 112.96289 Q 363.5082 112.96289 363.95255 112.63281 Q 364.39688 112.302734 364.65714 111.5791 Z M 360.9057 109.73193 L 364.66983 109.73193 Q 364.59366 108.88135 364.2382 108.45606 Q 363.6923 107.7959 362.82266 107.7959 Q 362.03558 107.7959 361.49915 108.322754 Q 360.9628 108.84961 360.9057 109.73193 Z M 367.25967 113.74999 L 367.25967 107.00879 L 368.288 107.00879 L 368.288 108.03076 Q 368.68152 107.31348 369.01477 107.08496 Q 369.34802 106.856445 369.74796 106.856445 Q 370.3256 106.856445 370.9223 107.22461 L 370.52872 108.284676 Q 370.10977 108.03711 369.69083 108.03711 Q 369.31635 108.03711 369.01797 108.26245 Q 368.71964 108.48779 368.59268 108.887695 Q 368.40228 109.49707 368.40228 110.22071 L 368.40228 113.74999 L 367.25967 113.74999 Z M 371.5507 116.34619 L 371.42374 115.27344 Q 371.79825 115.375 372.0775 115.375 Q 372.4584 115.375 372.68692 115.24805 Q 372.91544 115.12109 373.06143 114.89258 Q 373.16934 114.72119 373.41058 114.04199 Q 373.44226 113.94678 373.51212 113.762695 L 370.95398 107.00879 L 372.18546 107.00879 L 373.5883 110.9126 Q 373.86127 111.65527 374.07706 112.47412 Q 374.27383 111.68701 374.5468 110.93799 L 375.9877 107.00879 L 377.13028 107.00879 L 374.5658 113.86425 Q 374.15323 114.9751 373.9247 115.39405 Q 373.62003 115.95899 373.22644 116.22241 Q 372.83292 116.48584 372.28705 116.48584 Q 371.95694 116.48584 371.5507 116.34619 Z M 381.85925 113.74999 L 381.85925 104.444336 L 385.06485 104.444336 Q 386.15033 104.444336 386.7216 104.57764 Q 387.52142 104.76173 388.08633 105.24414 Q 388.82266 105.86621 389.18765 106.83423 Q 389.55267 107.802246 389.55267 109.04639 Q 389.55267 110.10645 389.30508 110.92529 Q 389.05753 111.74414 388.6703 112.28052 Q 388.2831 112.816895 387.8229 113.12475 Q 387.3627 113.43262 386.7121 113.59131 Q 386.06143 113.74999 385.2172 113.74999 L 381.85925 113.74999 Z M 383.09073 112.651855 L 385.07755 112.651855 Q 385.99796 112.651855 386.5216 112.48047 Q 387.04535 112.30908 387.35635 111.99805 Q 387.79434 111.56006 388.03873 110.82056 Q 388.2831 110.081055 388.2831 109.02735 Q 388.2831 107.56738 387.80386 106.78345 Q 387.32462 105.99951 386.63904 105.73292 Q 386.14398 105.54248 385.04578 105.54248 L 383.09073 105.54248 L 383.09073 112.651855 Z M 395.50037 112.91846 Q 394.86563 113.458015 394.27847 113.680176 Q 393.6913 113.90234 393.01846 113.90234 Q 391.90762 113.90234 391.31094 113.35962 Q 390.71423 112.816895 390.71423 111.97266 Q 390.71423 111.47753 390.9396 111.068115 Q 391.16492 110.65869 391.52994 110.41113 Q 391.89493 110.16358 392.35196 110.03662 Q 392.6884 109.947754 393.36758 109.865234 Q 394.75137 109.700195 395.40518 109.47168 Q 395.41153 109.23682 395.41153 109.17334 Q 395.41153 108.4751 395.0878 108.18945 Q 394.6498 107.802246 393.78653 107.802246 Q 392.98035 107.802246 392.59634 108.08472 Q 392.2123 108.36719 392.02823 109.08448 L 390.91107 108.93213 Q 391.0634 108.21484 391.41248 107.77369 Q 391.76163 107.33252 392.42178 107.09449 Q 393.08194 106.856445 393.95157 106.856445 Q 394.81482 106.856445 395.3544 107.05957 Q 395.89395 107.2627 396.1479 107.57056 Q 396.40173 107.87842 396.50333 108.34814 Q 396.56046 108.64014 396.56046 109.401855 L 396.56046 110.92529 Q 396.56046 112.518555 396.63345 112.940674 Q 396.70645 113.36279 396.92227 113.74999 L 395.72888 113.74999 Q 395.55118 113.39453 395.50037 112.91846 Z M 395.40518 110.3667 Q 394.78314 110.62061 393.53897 110.79833 Q 392.83438 110.89991 392.54236 111.026855 Q 392.2504 111.15381 392.09167 111.39819 Q 391.933 111.642586 391.933 111.94092 Q 391.933 112.39795 392.27896 112.70264 Q 392.6249 113.00733 393.2914 113.00733 Q 393.95157 113.00733 394.46573 112.71851 Q 394.9799 112.42969 395.2211 111.928215 Q 395.40518 111.541016 395.40518 110.78565 L 395.40518 110.3667 Z M 400.82608 112.72802 L 400.99112 113.737305 Q 400.50867 113.83887 400.12784 113.83887 Q 399.50577 113.83887 399.163 113.64209 Q 398.82022 113.44531 398.68054 113.12475 Q 398.54092 112.8042 398.54092 111.77588 L 398.54092 107.89745 L 397.70303 107.89745 L 397.70303 107.00879 L 398.54092 107.00879 L 398.54092 105.33935 L 399.67715 104.6538 L 399.67715 107.00879 L 400.82608 107.00879 L 400.82608 107.89745 L 399.67715 107.89745 L 399.67715 111.839355 Q 399.67715 112.32812 399.73746 112.46777 Q 399.7978 112.60743 399.9342 112.68994 Q 400.0707 112.77246 400.32462 112.77246 Q 400.51505 112.77246 400.82608 112.72802 Z M 406.3422 112.91846 Q 405.70746 113.458015 405.1203 113.680176 Q 404.5331 113.90234 403.86026 113.90234 Q 402.74945 113.90234 402.15274 113.35962 Q 401.55606 112.816895 401.55606 111.97266 Q 401.55606 111.47753 401.7814 111.068115 Q 402.00674 110.65869 402.37173 110.41113 Q 402.73676 110.16358 403.1938 110.03662 Q 403.53018 109.947754 404.20938 109.865234 Q 405.59317 109.700195 406.24698 109.47168 Q 406.25333 109.23682 406.25333 109.17334 Q 406.25333 108.4751 405.92963 108.18945 Q 405.49158 107.802246 404.62833 107.802246 Q 403.82217 107.802246 403.43814 108.08472 Q 403.0541 108.36719 402.87003 109.08448 L 401.75284 108.93213 Q 401.90518 108.21484 402.2543 107.77369 Q 402.60342 107.33252 403.26358 107.09449 Q 403.92374 106.856445 404.7934 106.856445 Q 405.65665 106.856445 406.1962 107.05957 Q 406.73575 107.2627 406.98965 107.57056 Q 407.24356 107.87842 407.34512 108.34814 Q 407.40225 108.64014 407.40225 109.401855 L 407.40225 110.92529 Q 407.40225 112.518555 407.47525 112.940674 Q 407.54822 113.36279 407.76404 113.74999 L 406.5707 113.74999 Q 406.39294 113.39453 406.3422 112.91846 Z M 406.24698 110.3667 Q 405.6249 110.62061 404.38077 110.79833 Q 403.67615 110.89991 403.3842 111.026855 Q 403.0922 111.15381 402.9335 111.39819 Q 402.77478 111.642586 402.77478 111.94092 Q 402.77478 112.39795 403.12073 112.70264 Q 403.4667 113.00733 404.13318 113.00733 Q 404.7934 113.00733 405.30753 112.71851 Q 405.8217 112.42969 406.0629 111.928215 Q 406.24698 111.541016 406.24698 110.78565 L 406.24698 110.3667 Z"/>
    </g>
    <path fill="none" stroke="#7a8aa6" stroke-width="2" stroke-dasharray="3 3" d="M 475.1 175.5 L 275.05 175.5"/>
    <g>
        <g clip-path="url(#clipPath3)" transform="matrix(-1 -0.00000009 0.00000009 -1 282.94998 180.50002)">
            <path fill="#7a8aa6" stroke="#7a8aa6" d="M -1 0 L 10 5 L 0 10 Z"/>
        </g>
    </g>
    <g>
        <path fill="#1c2430" stroke="none" d="M 333.11246 150.15 L 333.11246 140.84433 L 337.23843 140.84433 Q 338.48257 140.84433 339.13004 141.09506 Q 339.7775 141.3458 340.1647 141.98056 Q 340.5519 142.61533 340.5519 143.38339 Q 340.5519 144.37363 339.9108 145.05283 Q 339.26968 145.73203 337.93033 145.9161 Q 338.4191 146.15097 338.673 146.37949 Q 339.21255 146.8746 339.69498 147.61728 L 341.31363 150.15 L 339.7648 150.15 L 338.53336 148.21396 Q 337.9938 147.37607 337.64468 146.93173 Q 337.29556 146.4874 337.01944 146.30966 Q 336.74332 146.13193 336.45767 146.0621 Q 336.2482 146.01767 335.77213 146.01767 L 334.3439 146.01767 L 334.3439 150.15 L 333.11246 150.15 Z M 334.3439 144.95126 L 336.99088 144.95126 Q 337.8351 144.95126 338.3112 144.7767 Q 338.78726 144.60214 339.03482 144.21811 Q 339.28238 143.83408 339.28238 143.38339 Q 339.28238 142.72324 338.80313 142.29794 Q 338.32388 141.87265 337.2892 141.87265 L 334.3439 141.87265 L 334.3439 144.95126 Z M 346.95032 147.9791 L 348.131 148.12509 Q 347.85175 149.15976 347.09634 149.73105 Q 346.34097 150.30234 345.16666 150.30234 Q 343.68765 150.30234 342.8212 149.39145 Q 341.95474 148.48056 341.95474 146.83652 Q 341.95474 145.13535 342.83072 144.19589 Q 343.7067 143.25644 345.1032 143.25644 Q 346.45523 143.25644 347.31216 144.17685 Q 348.1691 145.09726 348.1691 146.7667 Q 348.1691 146.86826 348.16275 147.07138 L 343.1354 147.07138 Q 343.19888 148.18222 343.7638 148.77255 Q 344.32877 149.36288 345.173 149.36288 Q 345.80145 149.36288 346.2458 149.0328 Q 346.69012 148.70273 346.95032 147.9791 Z M 343.19888 146.13193 L 346.963 146.13193 Q 346.88687 145.28134 346.5314 144.85605 Q 345.9855 144.19589 345.1159 144.19589 Q 344.32877 144.19589 343.7924 144.72275 Q 343.256 145.2496 343.19888 146.13193 Z M 352.0602 149.12802 L 352.22525 150.1373 Q 351.7428 150.23886 351.36197 150.23886 Q 350.7399 150.23886 350.39713 150.04208 Q 350.05435 149.8453 349.91467 149.52475 Q 349.77505 149.2042 349.77505 148.17587 L 349.77505 144.29745 L 348.93716 144.29745 L 348.93716 143.40878 L 349.77505 143.40878 L 349.77505 141.73935 L 350.9113 141.0538 L 350.9113 143.40878 L 352.0602 143.40878 L 352.0602 144.29745 L 350.9113 144.29745 L 350.9113 148.23935 Q 350.9113 148.72812 350.9716 148.86777 Q 351.03192 149.00742 351.16833 149.08994 Q 351.30484 149.17245 351.55875 149.17245 Q 351.74918 149.17245 352.0602 149.12802 Z M 357.59537 150.15 L 357.59537 149.15976 Q 356.80826 150.30234 355.4562 150.30234 Q 354.85953 150.30234 354.34216 150.07382 Q 353.82486 149.8453 353.57413 149.49936 Q 353.32336 149.15341 353.22183 148.65195 Q 353.152 148.31552 353.152 147.58554 L 353.152 143.40878 L 354.2946 143.40878 L 354.2946 147.14755 Q 354.2946 148.04257 354.3644 148.3536 Q 354.4723 148.80429 354.82144 149.06137 Q 355.17056 149.31845 355.68472 149.31845 Q 356.19888 149.31845 356.64957 149.05502 Q 357.10025 148.7916 357.28754 148.33774 Q 357.47476 147.88388 357.47476 147.0206 L 357.47476 143.40878 L 358.61734 143.40878 L 358.61734 150.15 L 357.59537 150.15 Z M 360.39468 150.15 L 360.39468 143.40878 L 361.423 143.40878 L 361.423 144.43076 Q 361.81656 143.71347 362.1498 143.48495 Q 362.48306 143.25644 362.88293 143.25644 Q 363.4606 143.25644 364.05728 143.6246 L 363.66373 144.68466 Q 363.24478 144.4371 362.82584 144.4371 Q 362.45132 144.4371 362.153 144.66245 Q 361.85464 144.88779 361.72766 145.28769 Q 361.53726 145.89706 361.53726 146.6207 L 361.53726 150.15 L 360.39468 150.15 Z M 364.73648 150.15 L 364.73648 143.40878 L 365.7648 143.40878 L 365.7648 144.36728 Q 366.50745 143.25644 367.9103 143.25644 Q 368.5197 143.25644 369.03067 143.47543 Q 369.54166 143.69443 369.79556 144.0499 Q 370.04947 144.40536 370.151 144.89413 Q 370.2145 145.21152 370.2145 146.00497 L 370.2145 150.15 L 369.07193 150.15 L 369.07193 146.04941 Q 369.07193 145.35117 368.93863 145.00522 Q 368.80533 144.65927 368.46573 144.45297 Q 368.12613 144.24667 367.6691 144.24667 Q 366.93915 144.24667 366.40906 144.71005 Q 365.87906 145.17343 365.87906 146.46835 L 365.87906 150.15 L 364.73648 150.15 Z M 375.74332 150.15 L 375.74332 140.84433 L 379.8693 140.84433 Q 381.11343 140.84433 381.7609 141.09506 Q 382.40833 141.3458 382.79556 141.98056 Q 383.18277 142.61533 383.18277 143.38339 Q 383.18277 144.37363 382.54166 145.05283 Q 381.90054 145.73203 380.56122 145.9161 Q 381.04993 146.15097 381.30386 146.37949 Q 381.8434 146.8746 382.32584 147.61728 L 383.9445 150.15 L 382.3957 150.15 L 381.1642 148.21396 Q 380.62466 147.37607 380.27554 146.93173 Q 379.9264 146.4874 379.6503 146.30966 Q 379.37418 146.13193 379.08853 146.0621 Q 378.87906 146.01767 378.40298 146.01767 L 376.97473 146.01767 L 376.97473 150.15 L 375.74332 150.15 Z M 376.97473 144.95126 L 379.62173 144.95126 Q 380.46597 144.95126 380.94205 144.7767 Q 381.41812 144.60214 381.66568 144.21811 Q 381.91324 143.83408 381.91324 143.38339 Q 381.91324 142.72324 381.434 142.29794 Q 380.95474 141.87265 379.92004 141.87265 L 376.97473 141.87265 L 376.97473 144.95126 Z M 389.5812 147.9791 L 390.76187 148.12509 Q 390.48257 149.15976 389.7272 149.73105 Q 388.97186 150.30234 387.79752 150.30234 Q 386.3185 150.30234 385.4521 149.39145 Q 384.5856 148.48056 384.5856 146.83652 Q 384.5856 145.13535 385.46158 144.19589 Q 386.33755 143.25644 387.73404 143.25644 Q 389.0861 143.25644 389.94302 144.17685 Q 390.8 145.09726 390.8 146.7667 Q 390.8 146.86826 390.79364 147.07138 L 385.76627 147.07138 Q 385.8297 148.18222 386.39468 148.77255 Q 386.9596 149.36288 387.80386 149.36288 Q 388.43228 149.36288 388.87662 149.0328 Q 389.32095 148.70273 389.5812 147.9791 Z M 385.8297 146.13193 L 389.5939 146.13193 Q 389.51773 145.28134 389.16226 144.85605 Q 388.61636 144.19589 387.74673 144.19589 Q 386.9596 144.19589 386.42325 144.72275 Q 385.88687 145.2496 385.8297 146.13193 Z M 391.73938 148.13779 L 392.86926 147.96005 Q 392.9645 148.63925 393.39932 149.00107 Q 393.83414 149.36288 394.6149 149.36288 Q 395.402 149.36288 395.78287 149.04233 Q 396.16373 148.72177 396.16373 148.29013 Q 396.16373 147.90292 395.82727 147.68076 Q 395.5924 147.52841 394.65936 147.29355 Q 393.4025 146.97617 392.9169 146.74448 Q 392.43127 146.51279 392.18057 146.10336 Q 391.92987 145.69394 391.92987 145.19882 Q 391.92987 144.74814 392.13614 144.3641 Q 392.34244 143.98007 392.6979 143.72617 Q 392.9645 143.52939 393.42474 143.39291 Q 393.88492 143.25644 394.41177 143.25644 Q 395.20523 143.25644 395.80508 143.48495 Q 396.40494 143.71347 396.69058 144.10385 Q 396.9762 144.49423 397.08414 145.14804 L 395.96695 145.30038 Q 395.89078 144.77988 395.5258 144.48788 Q 395.16077 144.19589 394.4943 144.19589 Q 393.70718 144.19589 393.37076 144.45615 Q 393.03433 144.7164 393.03433 145.06552 Q 393.03433 145.28769 393.17398 145.46542 Q 393.31366 145.6495 393.61197 145.77011 Q 393.78333 145.83359 394.62125 146.0621 Q 395.83362 146.38583 396.3129 146.59213 Q 396.79214 146.79843 397.0651 147.19199 Q 397.33804 147.58554 397.33804 148.16953 Q 397.33804 148.74081 397.0048 149.24545 Q 396.67154 149.75009 396.04315 150.02621 Q 395.4147 150.30234 394.62125 150.30234 Q 393.3073 150.30234 392.61856 149.75644 Q 391.92987 149.21054 391.73938 148.13779 Z M 403.11438 150.15 L 403.11438 149.15976 Q 402.3273 150.30234 400.97525 150.30234 Q 400.37854 150.30234 399.86124 150.07382 Q 399.3439 149.8453 399.0932 149.49936 Q 398.84244 149.15341 398.74088 148.65195 Q 398.67105 148.31552 398.67105 147.58554 L 398.67105 143.40878 L 399.81363 143.40878 L 399.81363 147.14755 Q 399.81363 148.04257 399.88348 148.3536 Q 399.99136 148.80429 400.3405 149.06137 Q 400.6896 149.31845 401.20377 149.31845 Q 401.71796 149.31845 402.16864 149.05502 Q 402.61932 148.7916 402.80655 148.33774 Q 402.9938 147.88388 402.9938 147.0206 L 402.9938 143.40878 L 404.13638 143.40878 L 404.13638 150.15 L 403.11438 150.15 Z M 405.90103 150.15 L 405.90103 140.84433 L 407.0436 140.84433 L 407.0436 150.15 L 405.90103 150.15 Z M 411.30923 149.12802 L 411.47427 150.1373 Q 410.99185 150.23886 410.61096 150.23886 Q 409.98892 150.23886 409.64615 150.04208 Q 409.30338 149.8453 409.16373 149.52475 Q 409.02405 149.2042 409.02405 148.17587 L 409.02405 144.29745 L 408.1862 144.29745 L 408.1862 143.40878 L 409.02405 143.40878 L 409.02405 141.73935 L 410.16028 141.0538 L 410.16028 143.40878 L 411.30923 143.40878 L 411.30923 144.29745 L 410.16028 144.29745 L 410.16028 148.23935 Q 410.16028 148.72812 410.2206 148.86777 Q 410.2809 149.00742 410.4174 149.08994 Q 410.55386 149.17245 410.8078 149.17245 Q 410.9982 149.17245 411.30923 149.12802 Z M 411.96936 148.13779 L 413.09924 147.96005 Q 413.1945 148.63925 413.6293 149.00107 Q 414.06412 149.36288 414.84488 149.36288 Q 415.632 149.36288 416.01285 149.04233 Q 416.3937 148.72177 416.3937 148.29013 Q 416.3937 147.90292 416.05725 147.68076 Q 415.82245 147.52841 414.88934 147.29355 Q 413.63248 146.97617 413.14688 146.74448 Q 412.66125 146.51279 412.41055 146.10336 Q 412.15985 145.69394 412.15985 145.19882 Q 412.15985 144.74814 412.36612 144.3641 Q 412.57242 143.98007 412.9279 143.72617 Q 413.1945 143.52939 413.65472 143.39291 Q 414.1149 143.25644 414.64175 143.25644 Q 415.4352 143.25644 416.03506 143.48495 Q 416.63492 143.71347 416.92056 144.10385 Q 417.20618 144.49423 417.31412 145.14804 L 416.19693 145.30038 Q 416.12076 144.77988 415.75577 144.48788 Q 415.39075 144.19589 414.72427 144.19589 Q 413.93716 144.19589 413.60074 144.45615 Q 413.2643 144.7164 413.2643 145.06552 Q 413.2643 145.28769 413.40396 145.46542 Q 413.54364 145.6495 413.84195 145.77011 Q 414.0133 145.83359 414.85123 146.0621 Q 416.0636 146.38583 416.54288 146.59213 Q 417.02213 146.79843 417.29507 147.19199 Q 417.56802 147.58554 417.56802 148.16953 Q 417.56802 148.74081 417.23477 149.24545 Q 416.90152 149.75009 416.27313 150.02621 Q 415.64468 150.30234 414.85123 150.30234 Q 413.5373 150.30234 412.84854 149.75644 Q 412.15985 149.21054 411.96936 148.13779 Z"/>
    </g>
    <path fill="none" stroke="#7a8aa6" stroke-width="2" stroke-dasharray="3 3" d="M 275.05 211.89998 L 75 211.89998"/>
    <g>
        <g clip-path="url(#clipPath4)" transform="matrix(-1 -0.00000009 0.00000009 -1 82.9 216.9)">
            <path fill="#7a8aa6" stroke="#7a8aa6" d="M -1 0 L 10 5 L 0 10 Z"/>
        </g>
    </g>
    <g>
        <path fill="#1c2430" stroke="none" d="M 154.71068 186.55 L 154.71068 177.24434 L 157.91624 177.24434 Q 159.0017 177.24434 159.57298 177.37766 Q 160.37279 177.56172 160.93773 178.04414 Q 161.67406 178.66621 162.03905 179.63423 Q 162.40404 180.60225 162.40404 181.84639 Q 162.40404 182.90645 162.15648 183.7253 Q 161.90892 184.54416 161.52171 185.08052 Q 161.1345 185.6169 160.6743 185.92476 Q 160.2141 186.23262 159.56346 186.39131 Q 158.91283 186.55 158.06859 186.55 L 154.71068 186.55 Z M 155.94212 185.45187 L 157.92894 185.45187 Q 158.84935 185.45187 159.37303 185.28047 Q 159.89671 185.1091 160.20775 184.79805 Q 160.64574 184.36006 160.89012 183.62056 Q 161.1345 182.88106 161.1345 181.82733 Q 161.1345 180.36739 160.65526 179.58345 Q 160.17601 178.79951 159.49046 178.5329 Q 158.99535 178.34248 157.8972 178.34248 L 155.94212 178.34248 L 155.94212 185.45187 Z M 163.95921 178.5583 L 163.95921 177.24434 L 165.10179 177.24434 L 165.10179 178.5583 L 163.95921 178.5583 Z M 163.95921 186.55 L 163.95921 179.80879 L 165.10179 179.80879 L 165.10179 186.55 L 163.95921 186.55 Z M 166.38402 184.53781 L 167.5139 184.36006 Q 167.60912 185.03926 168.04393 185.40108 Q 168.47874 185.7629 169.2595 185.7629 Q 170.04662 185.7629 170.42747 185.44235 Q 170.80833 185.12177 170.80833 184.69014 Q 170.80833 184.30293 170.47191 184.08078 Q 170.23705 183.92842 169.30394 183.69356 Q 168.0471 183.37617 167.56151 183.14449 Q 167.07591 182.9128 166.82518 182.50336 Q 166.57445 182.09395 166.57445 181.59882 Q 166.57445 181.14813 166.78075 180.76411 Q 166.98705 180.38008 167.34251 180.12616 Q 167.60912 179.9294 168.06932 179.79292 Q 168.52953 179.65646 169.05638 179.65646 Q 169.84984 179.65646 170.44969 179.88498 Q 171.04955 180.11346 171.33519 180.50386 Q 171.62083 180.89424 171.72874 181.54805 L 170.61156 181.70041 Q 170.53539 181.17989 170.1704 180.8879 Q 169.8054 180.5959 169.1389 180.5959 Q 168.35179 180.5959 168.01537 180.85616 Q 167.67894 181.11641 167.67894 181.46555 Q 167.67894 181.6877 167.81859 181.86543 Q 167.95824 182.0495 168.25658 182.1701 Q 168.42796 182.2336 169.26585 182.46211 Q 170.47826 182.78584 170.9575 182.99214 Q 171.43675 183.19844 171.7097 183.592 Q 171.98265 183.98553 171.98265 184.56953 Q 171.98265 185.14082 171.6494 185.64546 Q 171.31615 186.15009 170.68773 186.42622 Q 170.05931 186.70236 169.26585 186.70236 Q 167.95189 186.70236 167.26317 186.15645 Q 166.57445 185.61055 166.38402 184.53781 Z M 173.34103 189.1335 L 173.34103 179.80879 L 174.38206 179.80879 L 174.38206 180.68475 Q 174.75023 180.17061 175.21361 179.91353 Q 175.67699 179.65646 176.33714 179.65646 Q 177.20041 179.65646 177.86058 180.1008 Q 178.52074 180.54512 178.85716 181.35446 Q 179.19359 182.16376 179.19359 183.12862 Q 179.19359 184.16328 178.82225 184.99167 Q 178.4509 185.82002 177.74315 186.26117 Q 177.03539 186.70236 176.25462 186.70236 Q 175.68333 186.70236 175.22948 186.46114 Q 174.77562 186.21992 174.48363 185.85176 L 174.48363 189.1335 L 173.34103 189.1335 Z M 174.37572 183.21748 Q 174.37572 184.51875 174.90257 185.14082 Q 175.42943 185.7629 176.17844 185.7629 Q 176.94017 185.7629 177.4829 185.11859 Q 178.02562 184.47432 178.02562 183.12227 Q 178.02562 181.8337 177.49559 181.19258 Q 176.96558 180.55147 176.22923 180.55147 Q 175.49924 180.55147 174.93748 181.23384 Q 174.37572 181.91621 174.37572 183.21748 Z M 180.54564 186.55 L 180.54564 177.24434 L 181.68822 177.24434 L 181.68822 186.55 L 180.54564 186.55 Z M 187.85814 185.71846 Q 187.22337 186.258 186.6362 186.48016 Q 186.04907 186.70236 185.37622 186.70236 Q 184.26537 186.70236 183.6687 186.15962 Q 183.072 185.6169 183.072 184.77267 Q 183.072 184.27754 183.29735 183.8681 Q 183.52269 183.4587 183.88768 183.21114 Q 184.25266 182.96356 184.70969 182.83664 Q 185.04611 182.74776 185.72531 182.66524 Q 187.10912 182.50018 187.76294 182.2717 Q 187.76926 182.03683 187.76926 181.97334 Q 187.76926 181.2751 187.44554 180.98946 Q 187.00755 180.60225 186.14427 180.60225 Q 185.33812 180.60225 184.95409 180.88472 Q 184.57007 181.16719 184.38597 181.88448 L 183.26878 181.73213 Q 183.42113 181.01486 183.77025 180.57367 Q 184.11938 180.13252 184.77953 179.89447 Q 185.43968 179.65646 186.30931 179.65646 Q 187.17259 179.65646 187.71214 179.85957 Q 188.2517 180.0627 188.5056 180.37056 Q 188.7595 180.67844 188.86107 181.14813 Q 188.9182 181.44014 188.9182 182.20186 L 188.9182 183.7253 Q 188.9182 185.31856 188.9912 185.74068 Q 189.0642 186.1628 189.28001 186.55 L 188.08665 186.55 Q 187.90892 186.19453 187.85814 185.71846 Z M 187.76294 183.1667 Q 187.14085 183.4206 185.89671 183.59834 Q 185.19212 183.6999 184.90013 183.82686 Q 184.60814 183.95381 184.44945 184.19821 Q 184.29076 184.44257 184.29076 184.74092 Q 184.29076 185.19795 184.6367 185.50264 Q 184.98265 185.80731 185.64915 185.80731 Q 186.30931 185.80731 186.82347 185.51851 Q 187.33763 185.22968 187.57884 184.72823 Q 187.76294 184.34102 187.76294 183.58565 L 187.76294 183.1667 Z M 190.63841 189.1462 L 190.51146 188.07343 Q 190.88597 188.17502 191.16528 188.17502 Q 191.54613 188.17502 191.77464 188.04805 Q 192.00316 187.9211 192.14915 187.69258 Q 192.25706 187.5212 192.49828 186.842 Q 192.53003 186.74678 192.59984 186.5627 L 190.04172 179.80879 L 191.27318 179.80879 L 192.67601 183.7126 Q 192.94896 184.45528 193.16478 185.27412 Q 193.36156 184.48701 193.6345 183.738 L 195.07542 179.80879 L 196.218 179.80879 L 193.65355 186.66426 Q 193.24095 187.7751 193.01244 188.19403 Q 192.70775 188.75897 192.31418 189.02242 Q 191.92064 189.28584 191.37474 189.28584 Q 191.04466 189.28584 190.63841 189.1462 Z"/>
    </g>
    <path fill="#f8faff" stroke="#c7d2e5" d="M 203.05 0 L 347.05 0 C 348.70685 0 350.05 1.3431457 350.05 3 L 350.05 62 C 350.05 63.656853 348.70685 65 347.05 65 L 203.05 65 C 201.39316 65 200.05002 63.656853 200.05002 62 L 200.05002 3 C 200.05002 1.3431457 201.39316 0 203.05 0 Z"/>
    <g>
        <path fill="#1c2430" stroke="none" d="M 263.4655 35.75 L 267.03925 26.444336 L 268.3659 26.444336 L 272.1745 35.75 L 270.77167 35.75 L 269.68622 32.93164 L 265.7951 32.93164 L 264.77313 35.75 L 263.4655 35.75 Z M 266.15057 31.92871 L 269.30536 31.92871 L 268.33417 29.351563 Q 267.88983 28.177246 267.674 27.421875 Q 267.49628 28.316895 267.17255 29.199219 L 266.15057 31.92871 Z M 273.0124 38.333496 L 273.0124 29.00879 L 274.0534 29.00879 L 274.0534 29.884768 Q 274.42157 29.370605 274.88495 29.113525 Q 275.34833 28.856445 276.00848 28.856445 Q 276.87177 28.856445 277.53192 29.300781 Q 278.19208 29.745115 278.5285 30.554441 Q 278.86493 31.363768 278.86493 32.328613 Q 278.86493 33.36328 278.4936 34.19165 Q 278.12225 35.02002 277.4145 35.46118 Q 276.70673 35.902344 275.92596 35.902344 Q 275.35468 35.902344 274.90082 35.661133 Q 274.44696 35.41992 274.15497 35.051758 L 274.15497 38.333496 L 273.0124 38.333496 Z M 274.04706 32.41748 Q 274.04706 33.71875 274.5739 34.34082 Q 275.10077 34.96289 275.8498 34.96289 Q 276.6115 34.96289 277.15424 34.318604 Q 277.69696 33.674316 277.69696 32.322266 Q 277.69696 31.033691 277.16693 30.392578 Q 276.6369 29.751465 275.90057 29.751465 Q 275.1706 29.751465 274.60883 30.433838 Q 274.04706 31.11621 274.04706 32.41748 Z M 280.24237 38.333496 L 280.24237 29.00879 L 281.2834 29.00879 L 281.2834 29.884768 Q 281.65155 29.370605 282.11493 29.113525 Q 282.5783 28.856445 283.23846 28.856445 Q 284.10175 28.856445 284.7619 29.300781 Q 285.42206 29.745115 285.75848 30.554441 Q 286.0949 31.363768 286.0949 32.328613 Q 286.0949 33.36328 285.72357 34.19165 Q 285.35223 35.02002 284.64447 35.46118 Q 283.9367 35.902344 283.15594 35.902344 Q 282.58466 35.902344 282.1308 35.661133 Q 281.67694 35.41992 281.38495 35.051758 L 281.38495 38.333496 L 280.24237 38.333496 Z M 281.27704 32.41748 Q 281.27704 33.71875 281.8039 34.34082 Q 282.33075 34.96289 283.07977 34.96289 Q 283.8415 34.96289 284.38422 34.318604 Q 284.92694 33.674316 284.92694 32.322266 Q 284.92694 31.033691 284.3969 30.392578 Q 283.86688 29.751465 283.13055 29.751465 Q 282.40057 29.751465 281.8388 30.433838 Q 281.27704 31.11621 281.27704 32.41748 Z"/>
    </g>
    <path fill="#f8faff" stroke="#c7d2e5" d="M 403.1 0 L 547.1 0 C 548.75684 0 550.1 1.3431457 550.1 3 L 550.1 62 C 550.1 63.656853 548.75684 65 547.1 65 L 403.1 65 C 401.44315 65 400.10004 63.656853 400.10004 62 L 400.10004 3 C 400.10004 1.3431457 401.44315 0 403.1 0 Z"/>
    <g>
        <path fill="#1c2430" stroke="none" d="M 467.0734 35.75 L 467.0734 26.444336 L 470.27896 26.444336 Q 471.3644 26.444336 471.9357 26.577637 Q 472.7355 26.761717 473.30045 27.244139 Q 474.03674 27.86621 474.40176 28.83423 Q 474.76675 29.802244 474.76675 31.046387 Q 474.76675 32.106445 474.5192 32.925293 Q 474.2716 33.74414 473.88443 34.280518 Q 473.49722 34.816895 473.03702 35.124756 Q 472.5768 35.432617 471.92618 35.59131 Q 471.27557 35.75 470.4313 35.75 L 467.0734 35.75 Z M 468.30484 34.651855 L 470.29166 34.651855 Q 471.21207 34.651855 471.73575 34.48047 Q 472.25943 34.309082 472.57047 33.998047 Q 473.00845 33.56006 473.25284 32.820557 Q 473.49722 32.081055 473.49722 31.027344 Q 473.49722 29.567383 473.01794 28.783447 Q 472.53873 27.999512 471.85318 27.73291 Q 471.35806 27.542479 470.25992 27.542479 L 468.30484 27.542479 L 468.30484 34.651855 Z M 476.4108 35.75 L 476.4108 26.444336 L 479.90204 26.444336 Q 480.9684 26.444336 481.61273 26.726807 Q 482.257 27.009277 482.62198 27.596436 Q 482.98697 28.183594 482.98697 28.824707 Q 482.98697 29.421387 482.6632 29.948242 Q 482.3395 30.475098 481.6857 30.798828 Q 482.52994 31.046387 482.98383 31.643066 Q 483.43765 32.239746 483.43765 33.052246 Q 483.43765 33.706055 483.16153 34.267822 Q 482.88538 34.82959 482.47916 35.134277 Q 482.0729 35.438965 481.46036 35.594482 Q 480.84778 35.75 479.95914 35.75 L 476.4108 35.75 Z M 477.64227 30.354494 L 479.65445 30.354494 Q 480.4733 30.354494 480.8288 30.246582 Q 481.29846 30.106934 481.53653 29.783203 Q 481.77454 29.459475 481.77454 28.970703 Q 481.77454 28.507326 481.5524 28.15503 Q 481.33023 27.802734 480.91763 27.672607 Q 480.50504 27.542479 479.50208 27.542479 L 477.64227 27.542479 L 477.64227 30.354494 Z M 477.64227 34.651855 L 479.95914 34.651855 Q 480.55582 34.651855 480.79703 34.60742 Q 481.22232 34.53125 481.508 34.353516 Q 481.7936 34.17578 481.97766 33.83618 Q 482.16177 33.496582 482.16177 33.052246 Q 482.16177 32.53174 481.89517 32.147705 Q 481.62857 31.763672 481.1557 31.608154 Q 480.68277 31.452637 479.7941 31.452637 L 477.64227 31.452637 L 477.64227 34.651855 Z"/>
    </g>
    <path fill="#f8faff" stroke="#c7d2e5" d="M 3 0 L 147 0 C 148.65686 0 150 1.3431457 150 3 L 150 62 C 150 63.656853 148.65686 65 147 65 L 3 65 C 1.3431457 65 0 63.656853 0 62 L 0 3 C -0 1.3431457 1.3431457 0 3 0 Z"/>
    <g>
        <path fill="#1c2430" stroke="none" d="M 68.38574 26.444336 L 69.61719 26.444336 L 69.61719 31.8208 Q 69.61719 33.223633 69.299805 34.04883 Q 68.98242 34.874023 68.15405 35.391357 Q 67.32568 35.90869 65.97998 35.90869 Q 64.67236 35.90869 63.84082 35.458008 Q 63.009274 35.007324 62.65381 34.153564 Q 62.298344 33.299805 62.298344 31.8208 L 62.298344 26.444336 L 63.529785 26.444336 L 63.529785 31.814453 Q 63.529785 33.026855 63.755127 33.60132 Q 63.98047 34.17578 64.52954 34.486816 Q 65.07861 34.79785 65.87207 34.79785 Q 67.23047 34.79785 67.808105 34.18213 Q 68.38574 33.566406 68.38574 31.814453 L 68.38574 26.444336 Z M 71.06445 33.737793 L 72.194336 33.56006 Q 72.28955 34.239258 72.724365 34.601074 Q 73.15918 34.96289 73.93994 34.96289 Q 74.72705 34.96289 75.10791 34.642334 Q 75.48877 34.321777 75.48877 33.890137 Q 75.48877 33.50293 75.15234 33.28076 Q 74.91748 33.128418 73.984375 32.893555 Q 72.72754 32.57617 72.24194 32.344482 Q 71.75635 32.112793 71.505615 31.703371 Q 71.25488 31.293943 71.25488 30.798828 Q 71.25488 30.348145 71.46118 29.964111 Q 71.66748 29.580078 72.02295 29.326172 Q 72.28955 29.129395 72.749756 28.99292 Q 73.20996 28.856445 73.73682 28.856445 Q 74.53027 28.856445 75.13013 29.08496 Q 75.72998 29.313477 76.015625 29.703857 Q 76.30127 30.094238 76.40918 30.748047 L 75.29199 30.90039 Q 75.21582 30.379883 74.85083 30.08789 Q 74.48584 29.795898 73.819336 29.795898 Q 73.03223 29.795898 72.6958 30.056154 Q 72.359375 30.316406 72.359375 30.66553 Q 72.359375 30.887695 72.49902 31.065428 Q 72.63867 31.249514 72.93701 31.370117 Q 73.1084 31.433596 73.94629 31.662107 Q 75.15869 31.98584 75.63794 32.19214 Q 76.11719 32.398438 76.39014 32.791992 Q 76.663086 33.185547 76.663086 33.76953 Q 76.663086 34.34082 76.329834 34.84546 Q 75.99658 35.350098 75.368164 35.62622 Q 74.739746 35.902344 73.94629 35.902344 Q 72.632324 35.902344 71.9436 35.356445 Q 71.25488 34.810547 71.06445 33.737793 Z M 82.63623 33.5791 L 83.816895 33.725098 Q 83.5376 34.759766 82.78223 35.331055 Q 82.026855 35.902344 80.85254 35.902344 Q 79.373535 35.902344 78.50708 34.991455 Q 77.640625 34.080566 77.640625 32.436523 Q 77.640625 30.735352 78.5166 29.795898 Q 79.39258 28.856445 80.78906 28.856445 Q 82.14111 28.856445 82.99805 29.776855 Q 83.85498 30.697264 83.85498 32.3667 Q 83.85498 32.46826 83.84863 32.671387 L 78.82129 32.671387 Q 78.884766 33.782227 79.44971 34.37256 Q 80.01465 34.96289 80.85889 34.96289 Q 81.487305 34.96289 81.93164 34.632813 Q 82.37598 34.302734 82.63623 33.5791 Z M 78.884766 31.731936 L 82.648926 31.731936 Q 82.572754 30.881346 82.217285 30.456055 Q 81.67139 29.795898 80.80176 29.795898 Q 80.01465 29.795898 79.47827 30.322754 Q 78.941895 30.84961 78.884766 31.731936 Z M 85.23877 35.75 L 85.23877 29.00879 L 86.26708 29.00879 L 86.26708 30.030762 Q 86.66065 29.313477 86.9939 29.08496 Q 87.32715 28.856445 87.72705 28.856445 Q 88.30469 28.856445 88.90137 29.22461 L 88.50781 30.284666 Q 88.08886 30.03711 87.66992 30.03711 Q 87.2954 30.03711 86.99707 30.262451 Q 86.69873 30.487793 86.57178 30.887695 Q 86.38134 31.49707 86.38134 32.220703 L 86.38134 35.75 L 85.23877 35.75 Z"/>
    </g>
    <path fill="#f8faff" stroke="#c7d2e5" d="M 3 228.14998 L 147 228.14998 C 148.65686 228.14998 150 229.49312 150 231.15 L 150 290.15 C 150 291.80685 148.65686 293.15 147 293.15 L 3 293.15 C 1.3431457 293.15 0 291.80685 0 290.15 L 0 231.15 C -0 229.49312 1.3431457 228.14998 3 228.14998 Z"/>
    <g>
        <path fill="#1c2430" stroke="none" d="M 68.38574 254.59433 L 69.61719 254.59433 L 69.61719 259.9708 Q 69.61719 261.37363 69.299805 262.19882 Q 68.98242 263.02402 68.15405 263.54135 Q 67.32568 264.0587 65.97998 264.0587 Q 64.67236 264.0587 63.84082 263.608 Q 63.009274 263.15732 62.65381 262.30356 Q 62.298344 261.4498 62.298344 259.9708 L 62.298344 254.59433 L 63.529785 254.59433 L 63.529785 259.96445 Q 63.529785 261.17685 63.755127 261.7513 Q 63.98047 262.32578 64.52954 262.6368 Q 65.07861 262.94785 65.87207 262.94785 Q 67.23047 262.94785 67.808105 262.33212 Q 68.38574 261.7164 68.38574 259.96445 L 68.38574 254.59433 Z M 71.06445 261.8878 L 72.194336 261.71005 Q 72.28955 262.38925 72.724365 262.75107 Q 73.15918 263.11288 73.93994 263.11288 Q 74.72705 263.11288 75.10791 262.79233 Q 75.48877 262.47177 75.48877 262.04013 Q 75.48877 261.65292 75.15234 261.43076 Q 74.91748 261.2784 73.984375 261.04355 Q 72.72754 260.72617 72.24194 260.49448 Q 71.75635 260.2628 71.505615 259.85336 Q 71.25488 259.44394 71.25488 258.94882 Q 71.25488 258.49814 71.46118 258.1141 Q 71.66748 257.73007 72.02295 257.47617 Q 72.28955 257.2794 72.749756 257.1429 Q 73.20996 257.00644 73.73682 257.00644 Q 74.53027 257.00644 75.13013 257.23495 Q 75.72998 257.46347 76.015625 257.85385 Q 76.30127 258.24423 76.40918 258.89804 L 75.29199 259.05038 Q 75.21582 258.52988 74.85083 258.23788 Q 74.48584 257.9459 73.819336 257.9459 Q 73.03223 257.9459 72.6958 258.20615 Q 72.359375 258.4664 72.359375 258.81552 Q 72.359375 259.0377 72.49902 259.21542 Q 72.63867 259.3995 72.93701 259.5201 Q 73.1084 259.5836 73.94629 259.8121 Q 75.15869 260.13583 75.63794 260.34213 Q 76.11719 260.54843 76.39014 260.942 Q 76.663086 261.33554 76.663086 261.91953 Q 76.663086 262.4908 76.329834 262.99545 Q 75.99658 263.5001 75.368164 263.7762 Q 74.739746 264.05234 73.94629 264.05234 Q 72.632324 264.05234 71.9436 263.50644 Q 71.25488 262.96054 71.06445 261.8878 Z M 82.63623 261.7291 L 83.816895 261.8751 Q 83.5376 262.90976 82.78223 263.48105 Q 82.026855 264.05234 80.85254 264.05234 Q 79.373535 264.05234 78.50708 263.14145 Q 77.640625 262.23056 77.640625 260.58652 Q 77.640625 258.88535 78.5166 257.9459 Q 79.39258 257.00644 80.78906 257.00644 Q 82.14111 257.00644 82.99805 257.92685 Q 83.85498 258.84726 83.85498 260.5167 Q 83.85498 260.61826 83.84863 260.82138 L 78.82129 260.82138 Q 78.884766 261.93222 79.44971 262.52255 Q 80.01465 263.11288 80.85889 263.11288 Q 81.487305 263.11288 81.93164 262.7828 Q 82.37598 262.45273 82.63623 261.7291 Z M 78.884766 259.88193 L 82.648926 259.88193 Q 82.572754 259.03134 82.217285 258.60605 Q 81.67139 257.9459 80.80176 257.9459 Q 80.01465 257.9459 79.47827 258.47275 Q 78.941895 258.9996 78.884766 259.88193 Z M 85.23877 263.9 L 85.23877 257.15878 L 86.26708 257.15878 L 86.26708 258.18076 Q 86.66065 257.46347 86.9939 257.23495 Q 87.32715 257.00644 87.72705 257.00644 Q 88.30469 257.00644 88.90137 257.3746 L 88.50781 258.43466 Q 88.08886 258.1871 87.66992 258.1871 Q 87.2954 258.1871 86.99707 258.41245 Q 86.69873 258.6378 86.57178 259.0377 Q 86.38134 259.64706 86.38134 260.3707 L 86.38134 263.9 L 85.23877 263.9 Z"/>
    </g>
    <path fill="#f8faff" stroke="#c7d2e5" d="M 203.05 228.14998 L 347.05 228.14998 C 348.70685 228.14998 350.05 229.49312 350.05 231.15 L 350.05 290.15 C 350.05 291.80685 348.70685 293.15 347.05 293.15 L 203.05 293.15 C 201.39316 293.15 200.05002 291.80685 200.05002 290.15 L 200.05002 231.15 C 200.05002 229.49312 201.39316 228.14998 203.05 228.14998 Z"/>
    <g>
        <path fill="#1c2430" stroke="none" d="M 263.4655 263.9 L 267.03925 254.59433 L 268.3659 254.59433 L 272.1745 263.9 L 270.77167 263.9 L 269.68622 261.08163 L 265.7951 261.08163 L 264.77313 263.9 L 263.4655 263.9 Z M 266.15057 260.0787 L 269.30536 260.0787 L 268.33417 257.50156 Q 267.88983 256.32724 267.674 255.57187 Q 267.49628 256.4669 267.17255 257.3492 L 266.15057 260.0787 Z M 273.0124 266.4835 L 273.0124 257.15878 L 274.0534 257.15878 L 274.0534 258.03476 Q 274.42157 257.5206 274.88495 257.26352 Q 275.34833 257.00644 276.00848 257.00644 Q 276.87177 257.00644 277.53192 257.45078 Q 278.19208 257.8951 278.5285 258.70444 Q 278.86493 259.51376 278.86493 260.4786 Q 278.86493 261.51328 278.4936 262.34164 Q 278.12225 263.17 277.4145 263.61118 Q 276.70673 264.05234 275.92596 264.05234 Q 275.35468 264.05234 274.90082 263.81113 Q 274.44696 263.56992 274.15497 263.20175 L 274.15497 266.4835 L 273.0124 266.4835 Z M 274.04706 260.56747 Q 274.04706 261.86874 274.5739 262.4908 Q 275.10077 263.11288 275.8498 263.11288 Q 276.6115 263.11288 277.15424 262.4686 Q 277.69696 261.8243 277.69696 260.47226 Q 277.69696 259.1837 277.16693 258.54257 Q 276.6369 257.90146 275.90057 257.90146 Q 275.1706 257.90146 274.60883 258.58383 Q 274.04706 259.2662 274.04706 260.56747 Z M 280.24237 266.4835 L 280.24237 257.15878 L 281.2834 257.15878 L 281.2834 258.03476 Q 281.65155 257.5206 282.11493 257.26352 Q 282.5783 257.00644 283.23846 257.00644 Q 284.10175 257.00644 284.7619 257.45078 Q 285.42206 257.8951 285.75848 258.70444 Q 286.0949 259.51376 286.0949 260.4786 Q 286.0949 261.51328 285.72357 262.34164 Q 285.35223 263.17 284.64447 263.61118 Q 283.9367 264.05234 283.15594 264.05234 Q 282.58466 264.05234 282.1308 263.81113 Q 281.67694 263.56992 281.38495 263.20175 L 281.38495 266.4835 L 280.24237 266.4835 Z M 281.27704 260.56747 Q 281.27704 261.86874 281.8039 262.4908 Q 282.33075 263.11288 283.07977 263.11288 Q 283.8415 263.11288 284.38422 262.4686 Q 284.92694 261.8243 284.92694 260.47226 Q 284.92694 259.1837 284.3969 258.54257 Q 283.86688 257.90146 283.13055 257.90146 Q 282.40057 257.90146 281.8388 258.58383 Q 281.27704 259.2662 281.27704 260.56747 Z"/>
    </g>
    <path fill="#f8faff" stroke="#c7d2e5" d="M 403.1 228.14998 L 547.1 228.14998 C 548.75684 228.14998 550.1 229.49312 550.1 231.15 L 550.1 290.15 C 550.1 291.80685 548.75684 293.15 547.1 293.15 L 403.1 293.15 C 401.44315 293.15 400.10004 291.80685 400.10004 290.15 L 400.10004 231.15 C 400.10004 229.49312 401.44315 228.14998 403.1 228.14998 Z"/>
    <g>
        <path fill="#1c2430" stroke="none" d="M 467.0734 263.9 L 467.0734 254.59433 L 470.27896 254.59433 Q 471.3644 254.59433 471.9357 254.72765 Q 472.7355 254.91171 473.30045 255.39413 Q 474.03674 256.0162 474.40176 256.98422 Q 474.76675 257.95224 474.76675 259.19638 Q 474.76675 260.25644 474.5192 261.0753 Q 474.2716 261.89413 473.88443 262.4305 Q 473.49722 262.9669 473.03702 263.27475 Q 472.5768 263.5826 471.92618 263.7413 Q 471.27557 263.9 470.4313 263.9 L 467.0734 263.9 Z M 468.30484 262.80185 L 470.29166 262.80185 Q 471.21207 262.80185 471.73575 262.63046 Q 472.25943 262.45908 472.57047 262.14804 Q 473.00845 261.71005 473.25284 260.97055 Q 473.49722 260.23105 473.49722 259.17734 Q 473.49722 257.71738 473.01794 256.93344 Q 472.53873 256.1495 471.85318 255.88289 Q 471.35806 255.69247 470.25992 255.69247 L 468.30484 255.69247 L 468.30484 262.80185 Z M 476.4108 263.9 L 476.4108 254.59433 L 479.90204 254.59433 Q 480.9684 254.59433 481.61273 254.8768 Q 482.257 255.15927 482.62198 255.74644 Q 482.98697 256.3336 482.98697 256.9747 Q 482.98697 257.57138 482.6632 258.09824 Q 482.3395 258.6251 481.6857 258.94882 Q 482.52994 259.19638 482.98383 259.79306 Q 483.43765 260.38974 483.43765 261.20224 Q 483.43765 261.85605 483.16153 262.41782 Q 482.88538 262.97958 482.47916 263.28427 Q 482.0729 263.58896 481.46036 263.74448 Q 480.84778 263.9 479.95914 263.9 L 476.4108 263.9 Z M 477.64227 258.5045 L 479.65445 258.5045 Q 480.4733 258.5045 480.8288 258.39658 Q 481.29846 258.25693 481.53653 257.9332 Q 481.77454 257.60947 481.77454 257.1207 Q 481.77454 256.65732 481.5524 256.30502 Q 481.33023 255.95273 480.91763 255.8226 Q 480.50504 255.69247 479.50208 255.69247 L 477.64227 255.69247 L 477.64227 258.5045 Z M 477.64227 262.80185 L 479.95914 262.80185 Q 480.55582 262.80185 480.79703 262.75742 Q 481.22232 262.68124 481.508 262.5035 Q 481.7936 262.32578 481.97766 261.98618 Q 482.16177 261.64658 482.16177 261.20224 Q 482.16177 260.68173 481.89517 260.2977 Q 481.62857 259.91367 481.1557 259.75815 Q 480.68277 259.60263 479.7941 259.60263 L 477.64227 259.60263 L 477.64227 262.80185 Z"/>
    </g>
</svg>
