<svg width="480.19" height="80.50" xmlns="http://www.w3.org/2000/svg">
    <defs>
        <clipPath id="clipPath1">
            <path fill="#000000" stroke="none" d="M 0 0 L 10 0 L 10 10 L 0 10 Z"/>
        </clipPath>
        <clipPath id="clipPath2">
            <path fill="#000000" stroke="none" d="M 0 0 L 10 0 L 10 10 L 0 10 Z"/>
        </clipPath>
    </defs>
    <path fill="#ffffff" stroke="none" d="M 0 0 L 417.56006 0 L 417.56006 70 L 0 70 Z"/>
    <path fill="none" stroke="#7a8aa6" stroke-width="2" stroke-linecap="round" stroke-linejoin="round" d="M 102.51201 35 C 110.754 35 123.117 35 127.238 35 C 131.359 35 123.117 35 127.238 35 C 131.359 35 143.722 35 151.964 35"/>
    <g>
        <g clip-path="url(#clipPath1)" transform="matrix(0.8 0 0 0.8 147.964 31)">
            <path fill="#7a8aa6" stroke="none" d="M 0 0 L 10 5 L 0 10 Z"/>
        </g>
    </g>
    <path fill="none" stroke="#7a8aa6" stroke-width="2" stroke-linecap="round" stroke-linejoin="round" d="M 271.548 35 C 279.782 35 292.133 35 296.25 35 C 300.367 35 292.133 35 296.25 35 C 300.367 35 312.718 35 320.952 35"/>
    <g>
        <g clip-path="url(#clipPath2)" transform="matrix(0.8 0 0 0.8 316.952 31)">
            <path fill="#7a8aa6" stroke="none" d="M 0 0 L 10 5 L 0 10 Z"/>
        </g>
    </g>
    <path fill="#f8faff" stroke="#c7d2e5" stroke-linecap="round" stroke-linejoin="round" d="M 11 8 L 99.51 8 C 101.166855 8 102.509995 9.343145 102.509995 11 L 102.509995 59 C 102.509995 60.656857 101.166855 62 99.51 62 L 11 62 C 9.343145 62 8 60.656857 8 59 L 8 11 C 8 9.343145 9.343145 8 11 8 Z"/>
    <g>
        <path fill="#1c2430" stroke="none" d="M 42.117176 35.260254 L 43.278797 35.15869 Q 43.361317 35.856934 43.662834 36.304443 Q 43.964344 36.751953 44.599113 37.028076 Q 45.233875 37.3042 46.027332 37.3042 Q 46.731926 37.3042 47.271477 37.094727 Q 47.811028 36.885254 48.07445 36.520264 Q 48.33788 36.155273 48.33788 35.723633 Q 48.33788 35.285645 48.083973 34.95874 Q 47.830067 34.631836 47.24608 34.409668 Q 46.87157 34.26367 45.589344 33.95581 Q 44.307117 33.64795 43.792957 33.375 Q 43.12645 33.02588 42.79955 32.508545 Q 42.472645 31.99121 42.472645 31.350098 Q 42.472645 30.645506 42.872547 30.03296 Q 43.27245 29.42041 44.040516 29.103027 Q 44.808582 28.785643 45.748035 28.785643 Q 46.782703 28.785643 47.572987 29.118896 Q 48.36327 29.452147 48.788563 30.09961 Q 49.213856 30.74707 49.245594 31.565918 L 48.06493 31.654783 Q 47.969715 30.772463 47.420643 30.321777 Q 46.87157 29.871094 45.798813 29.871094 Q 44.68163 29.871094 44.170643 30.280518 Q 43.659657 30.689941 43.659657 31.267578 Q 43.659657 31.769041 44.021473 32.092773 Q 44.376938 32.416504 45.878166 32.756104 Q 47.379383 33.095703 47.937977 33.34961 Q 48.75048 33.72412 49.137684 34.298584 Q 49.52489 34.873047 49.52489 35.62207 Q 49.52489 36.364746 49.099598 37.02173 Q 48.674305 37.67871 47.877674 38.0437 Q 47.081043 38.40869 46.08446 38.40869 Q 44.821278 38.40869 43.967518 38.040527 Q 43.113758 37.672363 42.628162 36.93286 Q 42.142567 36.19336 42.117176 35.260254 Z M 53.55565 37.228027 L 53.720695 38.237305 Q 53.238274 38.338867 52.85741 38.338867 Q 52.23534 38.338867 51.892567 38.14209 Q 51.549793 37.945313 51.410145 37.624756 Q 51.270496 37.3042 51.270496 36.27588 L 51.270496 32.39746 L 50.432606 32.39746 L 50.432606 31.50879 L 51.270496 31.50879 L 51.270496 29.839355 L 52.406727 29.153807 L 52.406727 31.50879 L 53.55565 31.50879 L 53.55565 32.39746 L 52.406727 32.39746 L 52.406727 36.339355 Q 52.406727 36.828125 52.46703 36.967773 Q 52.527336 37.10742 52.663807 37.18994 Q 52.80028 37.27246 53.054188 37.27246 Q 53.244617 37.27246 53.55565 37.228027 Z M 59.071766 37.418457 Q 58.437004 37.958008 57.849842 38.180176 Q 57.262684 38.402344 56.589836 38.402344 Q 55.478992 38.402344 54.882313 37.85962 Q 54.285633 37.316895 54.285633 36.472656 Q 54.285633 35.97754 54.510975 35.568115 Q 54.736317 35.15869 55.101307 34.911133 Q 55.466297 34.663574 55.92333 34.53662 Q 56.259754 34.447754 56.938953 34.365234 Q 58.322742 34.200195 58.97655 33.97168 Q 58.982895 33.736816 58.982895 33.67334 Q 58.982895 32.975098 58.65917 32.689453 Q 58.22118 32.302246 57.357903 32.302246 Q 56.551746 32.302246 56.16771 32.584717 Q 55.78368 32.867188 55.599594 33.584473 L 54.48241 33.43213 Q 54.63475 32.714844 54.983875 32.27368 Q 55.332996 31.83252 55.993156 31.594482 Q 56.653305 31.356443 57.522938 31.356443 Q 58.386215 31.356443 58.925766 31.55957 Q 59.465317 31.762695 59.719223 32.070557 Q 59.973137 32.378418 60.074696 32.848145 Q 60.131824 33.140137 60.131824 33.901855 L 60.131824 35.425293 Q 60.131824 37.018555 60.20482 37.440674 Q 60.27782 37.862793 60.49364 38.25 L 59.30028 38.25 Q 59.122543 37.89453 59.071766 37.418457 Z M 58.97655 34.8667 Q 58.354485 35.120605 57.11034 35.29834 Q 56.40575 35.399902 56.113754 35.526855 Q 55.821766 35.65381 55.663074 35.898193 Q 55.504383 36.14258 55.504383 36.440918 Q 55.504383 36.89795 55.85033 37.202637 Q 56.196274 37.507324 56.86278 37.507324 Q 57.522938 37.507324 58.037098 37.218506 Q 58.55126 36.929688 58.79247 36.428223 Q 58.97655 36.041016 58.97655 35.285645 L 58.97655 34.8667 Z M 61.890125 38.25 L 61.890125 31.50879 L 62.918446 31.50879 L 62.918446 32.53076 Q 63.312 31.813477 63.645252 31.58496 Q 63.978508 31.356443 64.3784 31.356443 Q 64.95604 31.356443 65.55272 31.724611 L 65.159164 32.784668 Q 64.74022 32.53711 64.32127 32.53711 Q 63.946766 32.53711 63.648426 32.76245 Q 63.350086 32.987793 63.223133 33.387695 Q 63.032703 33.99707 63.032703 34.720703 L 63.032703 38.25 L 61.890125 38.25 Z M 68.72655 37.228027 L 68.89159 38.237305 Q 68.409164 38.338867 68.028305 38.338867 Q 67.406235 38.338867 67.06346 38.14209 Q 66.72069 37.945313 66.58104 37.624756 Q 66.44139 37.3042 66.44139 36.27588 L 66.44139 32.39746 L 65.6035 32.39746 L 65.6035 31.50879 L 66.44139 31.50879 L 66.44139 29.839355 L 67.57762 29.153807 L 67.57762 31.50879 L 68.72655 31.50879 L 68.72655 32.39746 L 67.57762 32.39746 L 67.57762 36.339355 Q 67.57762 36.828125 67.637924 36.967773 Q 67.69823 37.10742 67.8347 37.18994 Q 67.971176 37.27246 68.22508 37.27246 Q 68.41551 37.27246 68.72655 37.228027 Z"/>
    </g>
    <path fill="#f8faff" stroke="#c7d2e5" stroke-linecap="round" stroke-linejoin="round" d="M 154.96 8 L 268.54 8 C 270.19687 8 271.54 9.343145 271.54 11 L 271.54 59 C 271.54 60.656857 270.19687 62 268.54 62 L 154.96 62 C 153.30315 62 151.96 60.656857 151.96 59 L 151.96 11 C 151.96 9.343145 153.30315 8 154.96 8 Z"/>
    <g>
        <path fill="#1c2430" stroke="none" d="M 189.28294 38.25 L 189.28294 28.944336 L 192.7932 28.944336 Q 193.71996 28.944336 194.20872 29.033203 Q 194.89427 29.14746 195.35765 29.468018 Q 195.82103 29.788574 196.1035 30.36621 Q 196.38597 30.943846 196.38597 31.635742 Q 196.38597 32.822754 195.63058 33.644775 Q 194.87523 34.466797 192.9011 34.466797 L 190.51437 34.466797 L 190.51437 38.25 L 189.28294 38.25 Z M 190.51437 33.368652 L 192.92015 33.368652 Q 194.11351 33.368652 194.61497 32.924316 Q 195.11644 32.47998 195.11644 31.673828 Q 195.11644 31.089844 194.82129 30.67407 Q 194.52611 30.2583 194.04369 30.125 Q 193.73265 30.04248 192.89474 30.04248 L 190.51437 30.04248 L 190.51437 33.368652 Z M 197.79515 38.25 L 197.79515 31.50879 L 198.82347 31.50879 L 198.82347 32.53076 Q 199.21703 31.813477 199.55028 31.58496 Q 199.88353 31.356443 200.28342 31.356443 Q 200.86107 31.356443 201.45775 31.724611 L 201.06421 32.784668 Q 200.64525 32.53711 200.2263 32.53711 Q 199.85179 32.53711 199.55345 32.76245 Q 199.25513 32.987793 199.12817 33.387695 Q 198.93773 33.99707 198.93773 34.720703 L 198.93773 38.25 L 197.79515 38.25 Z M 201.71165 34.879395 Q 201.71165 33.006836 202.75267 32.10547 Q 203.6223 31.356443 204.87279 31.356443 Q 206.26292 31.356443 207.14525 32.267334 Q 208.02757 33.178223 208.02757 34.78418 Q 208.02757 36.08545 207.63719 36.8313 Q 207.24681 37.57715 206.50096 37.989746 Q 205.75511 38.402344 204.87279 38.402344 Q 203.45728 38.402344 202.58446 37.49463 Q 201.71165 36.586914 201.71165 34.879395 Z M 202.88599 34.879395 Q 202.88599 36.174316 203.45093 36.818604 Q 204.01587 37.46289 204.87279 37.46289 Q 205.72339 37.46289 206.28833 36.81543 Q 206.85326 36.16797 206.85326 34.84131 Q 206.85326 33.59082 206.28514 32.946533 Q 205.71703 32.302246 204.87279 32.302246 Q 204.01587 32.302246 203.45093 32.94336 Q 202.88599 33.584473 202.88599 34.879395 Z M 213.76585 35.78076 L 214.88939 35.926758 Q 214.70532 37.08838 213.94676 37.74536 Q 213.18822 38.402344 212.08372 38.402344 Q 210.69994 38.402344 209.85887 37.497803 Q 209.01782 36.59326 209.01782 34.904785 Q 209.01782 33.81299 209.37961 32.99414 Q 209.74144 32.175293 210.48094 31.76587 Q 211.22044 31.356443 212.09009 31.356443 Q 213.18822 31.356443 213.88646 31.911865 Q 214.5847 32.467285 214.78148 33.489258 L 213.67064 33.660645 Q 213.51195 32.981445 213.10889 32.63867 Q 212.7058 32.2959 212.1345 32.2959 Q 211.27122 32.2959 210.73169 32.914795 Q 210.19212 33.53369 210.19212 34.873047 Q 210.19212 36.231445 210.71263 36.847168 Q 211.23314 37.46289 212.07103 37.46289 Q 212.74388 37.46289 213.19456 37.050293 Q 213.64525 36.637695 213.76585 35.78076 Z M 220.48167 36.0791 L 221.66234 36.225098 Q 221.38304 37.259766 220.62766 37.831055 Q 219.8723 38.402344 218.69797 38.402344 Q 217.21896 38.402344 216.35252 37.491455 Q 215.48607 36.580566 215.48607 34.936523 Q 215.48607 33.23535 216.36205 32.2959 Q 217.23802 31.356443 218.6345 31.356443 Q 219.98656 31.356443 220.8435 32.276855 Q 221.70042 33.197266 221.70042 34.8667 Q 221.70042 34.96826 221.69408 35.171387 L 216.66673 35.171387 Q 216.73021 36.282227 217.29515 36.87256 Q 217.86009 37.46289 218.70432 37.46289 Q 219.33275 37.46289 219.77708 37.132813 Q 220.22142 36.802734 220.48167 36.0791 Z M 216.73021 34.231934 L 220.49437 34.231934 Q 220.4182 33.381348 220.06271 32.956055 Q 219.51683 32.2959 218.6472 32.2959 Q 217.86009 32.2959 217.32373 32.822754 Q 216.78734 33.34961 216.73021 34.231934 Z M 222.63988 36.237793 L 223.76976 36.06006 Q 223.86497 36.739258 224.29979 37.101074 Q 224.7346 37.46289 225.51535 37.46289 Q 226.30249 37.46289 226.68333 37.142334 Q 227.0642 36.821777 227.0642 36.390137 Q 227.0642 36.00293 226.72777 35.78076 Q 226.4929 35.628418 225.5598 35.393555 Q 224.30296 35.07617 223.81735 34.844482 Q 223.33177 34.612793 223.08104 34.20337 Q 222.8303 33.793945 222.8303 33.29883 Q 222.8303 32.848145 223.0366 32.46411 Q 223.24289 32.08008 223.59837 31.82617 Q 223.86497 31.629395 224.32518 31.49292 Q 224.78539 31.356443 225.31224 31.356443 Q 226.1057 31.356443 226.70555 31.58496 Q 227.3054 31.813477 227.59105 32.203857 Q 227.8767 32.59424 227.9846 33.248047 L 226.86743 33.40039 Q 226.79124 32.879883 226.42624 32.58789 Q 226.06126 32.2959 225.39478 32.2959 Q 224.60764 32.2959 224.27121 32.556152 Q 223.9348 32.816406 223.9348 33.165527 Q 223.9348 33.387695 224.07445 33.56543 Q 224.2141 33.74951 224.51244 33.870117 Q 224.68382 33.933594 225.5217 34.16211 Q 226.73412 34.48584 227.21338 34.69214 Q 227.69261 34.898438 227.96556 35.291992 Q 228.23853 35.685547 228.23853 36.26953 Q 228.23853 36.84082 227.90524 37.34546 Q 227.572 37.850098 226.94359 38.12622 Q 226.31516 38.402344 225.5217 38.402344 Q 224.20775 38.402344 223.51903 37.856445 Q 222.8303 37.310547 222.63988 36.237793 Z M 229.1399 36.237793 L 230.26976 36.06006 Q 230.36497 36.739258 230.79979 37.101074 Q 231.2346 37.46289 232.01537 37.46289 Q 232.80247 37.46289 233.18333 37.142334 Q 233.5642 36.821777 233.5642 36.390137 Q 233.5642 36.00293 233.22778 35.78076 Q 232.9929 35.628418 232.0598 35.393555 Q 230.80296 35.07617 230.31737 34.844482 Q 229.83176 34.612793 229.58104 34.20337 Q 229.3303 33.793945 229.3303 33.29883 Q 229.3303 32.848145 229.5366 32.46411 Q 229.7429 32.08008 230.09837 31.82617 Q 230.36497 31.629395 230.82518 31.49292 Q 231.28539 31.356443 231.81224 31.356443 Q 232.6057 31.356443 233.20555 31.58496 Q 233.80542 31.813477 234.09105 32.203857 Q 234.37668 32.59424 234.48462 33.248047 L 233.3674 33.40039 Q 233.29124 32.879883 232.92625 32.58789 Q 232.56125 32.2959 231.89476 32.2959 Q 231.10765 32.2959 230.77122 32.556152 Q 230.4348 32.816406 230.4348 33.165527 Q 230.4348 33.387695 230.57445 33.56543 Q 230.7141 33.74951 231.01244 33.870117 Q 231.18384 33.933594 232.02171 34.16211 Q 233.23413 34.48584 233.71336 34.69214 Q 234.19261 34.898438 234.46556 35.291992 Q 234.73851 35.685547 234.73851 36.26953 Q 234.73851 36.84082 234.40526 37.34546 Q 234.072 37.850098 233.44359 38.12622 Q 232.81517 38.402344 232.02171 38.402344 Q 230.70775 38.402344 230.01903 37.856445 Q 229.3303 37.310547 229.1399 36.237793 Z"/>
    </g>
    <path fill="#f8faff" stroke="#c7d2e5" stroke-linecap="round" stroke-linejoin="round" d="M 323.95 8 L 406.56 8 C 408.21686 8 409.55997 9.343145 409.55997 11 L 409.55997 59 C 409.55997 60.656857 408.21686 62 406.56 62 L 323.95 62 C 322.29315 62 320.95 60.656857 320.95 59 L 320.95 11 C 320.95 9.343145 322.29315 8 323.95 8 Z"/>
    <g>
        <path fill="#1c2430" stroke="none" d="M 354.7229 38.25 L 354.7229 28.944336 L 361.4514 28.944336 L 361.4514 30.04248 L 355.95435 30.04248 L 355.95435 32.89258 L 361.1023 32.89258 L 361.1023 33.984375 L 355.95435 33.984375 L 355.95435 37.151855 L 361.66727 37.151855 L 361.66727 38.25 L 354.7229 38.25 Z M 363.2224 38.25 L 363.2224 31.50879 L 364.25073 31.50879 L 364.25073 32.467285 Q 364.9934 31.356443 366.39624 31.356443 Q 367.0056 31.356443 367.5166 31.57544 Q 368.02762 31.794436 368.28146 32.149902 Q 368.5354 32.50537 368.63696 32.99414 Q 368.70047 33.311523 368.70047 34.10498 L 368.70047 38.25 L 367.5579 38.25 L 367.5579 34.149414 Q 367.5579 33.45117 367.42456 33.105225 Q 367.29126 32.759277 366.95166 32.55298 Q 366.61206 32.34668 366.15503 32.34668 Q 365.42505 32.34668 364.89502 32.81006 Q 364.365 33.273438 364.365 34.56836 L 364.365 38.25 L 363.2224 38.25 Z M 374.82596 38.25 L 374.82596 37.399414 Q 374.18478 38.402344 372.94067 38.402344 Q 372.1345 38.402344 371.4585 37.958008 Q 370.78244 37.51367 370.41116 36.71704 Q 370.0398 35.92041 370.0398 34.885742 Q 370.0398 33.876465 370.37622 33.054443 Q 370.71265 32.23242 371.3855 31.794436 Q 372.05835 31.356443 372.8899 31.356443 Q 373.49924 31.356443 373.97534 31.613525 Q 374.45142 31.870605 374.74976 32.283203 L 374.74976 28.944336 L 375.886 28.944336 L 375.886 38.25 L 374.82596 38.25 Z M 371.21414 34.885742 Q 371.21414 36.180664 371.76 36.821777 Q 372.3059 37.46289 373.04855 37.46289 Q 373.7976 37.46289 374.3213 36.85034 Q 374.845 36.237793 374.845 34.980957 Q 374.845 33.597168 374.31177 32.949707 Q 373.77856 32.302246 372.9978 32.302246 Q 372.23608 32.302246 371.7251 32.924316 Q 371.21414 33.546387 371.21414 34.885742 Z"/>
    </g>
</svg>
